<?plantuml 1.2026.2?><svg xmlns="http://www.w3.org/2000/svg" xmlns:xlink="http://www.w3.org/1999/xlink" contentStyleType="text/css" data-diagram-type="DESCRIPTION" height="439px" preserveAspectRatio="none" style="width:1220px;height:439px;background:#FFFFFF;" version="1.1" viewBox="0 0 1220 439" width="1220px" zoomAndPan="magnify"><title>Automation Framework - Module: capture</title><defs/><g><g class="title" data-source-line="1"><text fill="#000000" font-family="sans-serif" font-size="14" font-weight="bold" lengthAdjust="spacing" textLength="276.9102" x="464.5449" y="24.5332">Automation Framework - Module: capture</text></g><!--cluster capture--><g class="cluster" data-qualified-name="capture" data-source-line="8" id="ent0002"><rect fill="none" height="142" rx="2.5" ry="2.5" style="stroke:#181818;stroke-width:1;" width="607" x="287" y="173.8394"/><text fill="#000000" font-family="sans-serif" font-size="14" font-weight="bold" lengthAdjust="spacing" textLength="50.5723" x="565.2139" y="190.3726">capture</text></g><!--cluster Dependencies--><g class="cluster" data-qualified-name="Dependencies" data-source-line="13" id="ent0005"><rect fill="none" height="199" rx="2.5" ry="2.5" style="stroke:#181818;stroke-width:1;" width="211" x="1003" y="108.8394"/><text fill="#000000" font-family="sans-serif" font-size="14" font-weight="bold" lengthAdjust="spacing" textLength="94.9238" x="1061.0381" y="125.3726">Dependencies</text></g><!--cluster Primary Consumers--><g class="cluster" data-qualified-name="Primary Consumers" data-source-line="18" id="ent0008"><rect fill="none" height="181" rx="2.5" ry="2.5" style="stroke:#181818;stroke-width:1;" width="247" x="7" y="252.8394"/><text fill="#000000" font-family="sans-serif" font-size="14" font-weight="bold" lengthAdjust="spacing" textLength="133.0547" x="63.9727" y="269.3726">Primary Consumers</text></g><!--entity WindowCapture--><g class="entity" data-qualified-name="capture.WindowCapture" data-source-line="9" id="ent0003"><rect fill="#F1F1F1" height="90.4375" rx="2.5" ry="2.5" style="stroke:#181818;stroke-width:0.5;" width="139.8477" x="738" y="209.8394"/><text fill="#000000" font-family="sans-serif" font-size="14" lengthAdjust="spacing" textLength="119.8477" x="748" y="234.3726">window_capture.py</text><text fill="#000000" font-family="sans-serif" font-size="14" lengthAdjust="spacing" textLength="107.3789" x="748" y="251.982">WindowCapture /</text><text fill="#000000" font-family="sans-serif" font-size="14" lengthAdjust="spacing" textLength="104.2686" x="748" y="269.5913">WindowLocator /</text><text fill="#000000" font-family="sans-serif" font-size="14" lengthAdjust="spacing" textLength="89.4893" x="748" y="287.2007">CaptureResult</text></g><!--entity VideoCapture--><g class="entity" data-qualified-name="capture.VideoCapture" data-source-line="10" id="ent0004"><rect fill="#F1F1F1" height="55.2188" rx="2.5" ry="2.5" style="stroke:#181818;stroke-width:0.5;" width="208.7061" x="303" y="210.3394"/><text fill="#000000" font-family="sans-serif" font-size="14" lengthAdjust="spacing" textLength="157.1992" x="313" y="234.8726">video_stream_capture.py</text><text fill="#000000" font-family="sans-serif" font-size="14" lengthAdjust="spacing" textLength="188.7061" x="313" y="252.482">VideoStreamCapture + factory</text></g><!--entity Platform--><g class="entity" data-qualified-name="Dependencies.Platform" data-source-line="14" id="ent0006"><rect fill="#F1F1F1" height="72.8281" rx="2.5" ry="2.5" style="stroke:#181818;stroke-width:0.5;" width="178.7305" x="1019" y="218.3394"/><text fill="#000000" font-family="sans-serif" font-size="14" lengthAdjust="spacing" textLength="116.7236" x="1029" y="242.8726">platform adapters /</text><text fill="#000000" font-family="sans-serif" font-size="14" lengthAdjust="spacing" textLength="158.7305" x="1029" y="260.482">PIL / mss / pygetwindow /</text><text fill="#000000" font-family="sans-serif" font-size="14" lengthAdjust="spacing" textLength="71.5928" x="1029" y="278.0913">cv2 helpers</text></g><!--entity Core--><g class="entity" data-qualified-name="Dependencies.Core" data-source-line="15" id="ent0007"><rect fill="#F1F1F1" height="37.6094" rx="2.5" ry="2.5" style="stroke:#181818;stroke-width:0.5;" width="118.0547" x="1049.5" y="144.8394"/><text fill="#000000" font-family="sans-serif" font-size="14" lengthAdjust="spacing" textLength="98.0547" x="1059.5" y="169.3726">core.exceptions</text></g><!--entity Actions--><g class="entity" data-qualified-name="Primary Consumers.Actions" data-source-line="19" id="ent0009"><rect fill="#F1F1F1" height="55.2188" rx="2.5" ry="2.5" style="stroke:#181818;stroke-width:0.5;" width="128.9648" x="66" y="362.3394"/><text fill="#000000" font-family="sans-serif" font-size="14" lengthAdjust="spacing" textLength="86.3857" x="76" y="386.8726">actions.base /</text><text fill="#000000" font-family="sans-serif" font-size="14" lengthAdjust="spacing" textLength="108.9648" x="76" y="404.482">actions.advanced</text></g><!--entity ProfileResolver--><g class="entity" data-qualified-name="Primary Consumers.ProfileResolver" data-source-line="20" id="ent0010"><rect fill="#F1F1F1" height="37.6094" rx="2.5" ry="2.5" style="stroke:#181818;stroke-width:0.5;" width="214.5371" x="23" y="288.8394"/><text fill="#000000" font-family="sans-serif" font-size="14" lengthAdjust="spacing" textLength="194.5371" x="33" y="313.3726">runner.runtime_profile_resolver</text></g><g class="entity" data-qualified-name="GMN18" data-source-line="32" id="ent0019"><path d="M660,98.3394 L660,157.3941 A0,0 0 0 0 660,157.3941 L804,157.3941 L808,209.6994 L812,157.3941 L956.2915,157.3941 A0,0 0 0 0 956.2915,157.3941 L956.2915,108.3394 L946.2915,98.3394 L660,98.3394 A0,0 0 0 0 660,98.3394" fill="#FEFFDD" style="stroke:#181818;stroke-width:0.5;"/><path d="M946.2915,98.3394 L946.2915,108.3394 L956.2915,108.3394 L946.2915,98.3394" fill="#FEFFDD" style="stroke:#181818;stroke-width:0.5;"/><text fill="#000000" font-family="sans-serif" font-size="13" lengthAdjust="spacing" textLength="275.2915" x="666" y="116.8345">The capture module abstracts screenshots from</text><text fill="#000000" font-family="sans-serif" font-size="13" lengthAdjust="spacing" textLength="262.3042" x="666" y="133.1861">windows, desktop regions, and video streams</text><text fill="#000000" font-family="sans-serif" font-size="13" lengthAdjust="spacing" textLength="194.3906" x="666" y="149.5376">behind a compatible result model.</text></g><!--link WindowCapture to Platform--><g class="link" data-entity-1="ent0003" data-entity-2="ent0006" data-link-type="dependency" data-source-line="23" id="lnk11"><path d="M878.23,254.8394 C920.08,254.8394 967.85,254.8394 1012.8,254.8394" fill="none" id="WindowCapture-to-Platform" style="stroke:#181818;stroke-width:1;"/><polygon fill="#181818" points="1018.8,254.8394,1009.8,250.8394,1013.8,254.8394,1009.8,258.8394,1018.8,254.8394" style="stroke:#181818;stroke-width:1;"/></g><!--link WindowCapture to Core--><g class="link" data-entity-1="ent0003" data-entity-2="ent0007" data-link-type="dependency" data-source-line="24" id="lnk12"><path d="M878.23,233.7294 C930.07,217.9294 994.4606,198.2985 1043.4506,183.3685" fill="none" id="WindowCapture-to-Core" style="stroke:#181818;stroke-width:1;"/><polygon fill="#181818" points="1049.19,181.6194,1039.4148,180.4168,1044.4072,183.077,1041.747,188.0693,1049.19,181.6194" style="stroke:#181818;stroke-width:1;"/></g><!--link VideoCapture to WindowCapture--><g class="link" data-entity-1="ent0004" data-entity-2="ent0003" data-link-type="dependency" data-source-line="25" id="lnk13"><path d="M512.16,242.2594 C583.19,245.2894 669.4654,248.9742 731.7154,251.6242" fill="none" id="VideoCapture-to-WindowCapture" style="stroke:#181818;stroke-width:1;"/><polygon fill="#181818" points="737.71,251.8794,728.8883,247.5002,732.7145,251.6667,728.548,255.493,737.71,251.8794" style="stroke:#181818;stroke-width:1;"/><text fill="#000000" font-family="sans-serif" font-size="13" lengthAdjust="spacing" textLength="86.7217" x="543" y="224.3345">shared region /</text><text fill="#000000" font-family="sans-serif" font-size="13" lengthAdjust="spacing" textLength="66.4727" x="553.1245" y="240.6861">result types</text></g><!--link VideoCapture to Core--><g class="link" data-entity-1="ent0004" data-entity-2="ent0007" data-link-type="dependency" data-source-line="26" id="lnk14"><path d="M439.79,210.0194 C484.74,172.1194 571.92,106.0694 660,80.8394 C786.47,44.6094 828.55,48.2194 956,80.8394 C1004.08,93.1494 1048.4276,120.7559 1077.2176,141.1959" fill="none" id="VideoCapture-to-Core" style="stroke:#181818;stroke-width:1;"/><polygon fill="#181818" points="1082.11,144.6694,1077.0871,136.1977,1078.033,141.7749,1072.4558,142.7208,1082.11,144.6694" style="stroke:#181818;stroke-width:1;"/></g><!--link Actions to WindowCapture--><g class="link" data-entity-1="ent0009" data-entity-2="ent0003" data-link-type="dependency" data-source-line="27" id="lnk15"><path d="M195.05,377.1394 C322.07,351.7494 600.4864,296.1153 731.9764,269.8353" fill="none" id="Actions-to-WindowCapture" style="stroke:#181818;stroke-width:1;"/><polygon fill="#181818" points="737.86,268.6594,728.2506,266.5008,732.957,269.6393,729.8185,274.3457,737.86,268.6594" style="stroke:#181818;stroke-width:1;"/></g><!--link ProfileResolver to WindowCapture--><g class="link" data-entity-1="ent0010" data-entity-2="ent0003" data-link-type="dependency" data-source-line="28" id="lnk16"><path d="M238.17,301.6594 C314.48,297.0394 419.62,290.2594 512,282.8394 C589.43,276.6194 672.1803,268.6017 731.9403,262.5717" fill="none" id="ProfileResolver-to-WindowCapture" style="stroke:#181818;stroke-width:1;"/><polygon fill="#181818" points="737.91,261.9694,728.5539,258.8931,732.9353,262.4713,729.357,266.8527,737.91,261.9694" style="stroke:#181818;stroke-width:1;"/></g><!--link ProfileResolver to VideoCapture--><g class="link" data-entity-1="ent0010" data-entity-2="ent0004" data-link-type="dependency" data-source-line="29" id="lnk17"><path d="M206.28,288.7994 C236.02,281.2294 264.9354,273.8693 297.0354,265.6993" fill="none" id="ProfileResolver-to-VideoCapture" style="stroke:#181818;stroke-width:1;"/><polygon fill="#181818" points="302.85,264.2194,293.1415,262.5628,298.0045,265.4526,295.1147,270.3157,302.85,264.2194" style="stroke:#181818;stroke-width:1;"/></g><?plantuml-src ZLHDQzmm4BtxLmnxRNS3FUPG22c5GWfBKjfBOHbBOrkih16IlAaf_UyToJPPhoyvsNxpyUPfdfnCiWGFG-8Uas47NmFszChX37lupdgmT0yAVHe2LPMb9a5Y2ARj4cWJIEMYAfwDyoYL43lK_6fS2mtQI5SHnRrdHowzf54eSocwrbwdU5HdREasePfnsCs3xE1l1MyDOIU4mdgQmmS__dQ_2lGu8N2t04-iC778m1nxfZZOj0ECiAfPCroC9Zx550Zx5S_F77Wf-4BsGRGh8HbBqvAmzFnt9UOBUNAQd38KDugynTHmw06rb5A8UUBZjoUuWpxA1_YnfJJfpY5r-GGTMI-PXVKurw-xAfQfwOyYdzSsPJxopLp7O7eCemHS7FhIy6OuB5kFXnfZEThb6_K5dI9T-ZvCuBeo3CvHECWZcPvEFd1ZB9q2HRON2jFe4_WyOtcszJBt-yzl-hQX8kZwr0kwphlFHWsanMLjThs82CK7a4PFSLjUciwIjlsgcvdVcR6oHkKu4TISv2e2Dnip_kXekOZGbui9M8iXvV0ZH1M8NEnOtfl0UUsJD-97q1JFYVqiLG1q6egVOV9ptb5DdUG3bcN9dw0kDx2SY92HFLJYLSWZLly1?></g></svg>