<?plantuml 1.2026.2?><svg xmlns="http://www.w3.org/2000/svg" xmlns:xlink="http://www.w3.org/1999/xlink" contentStyleType="text/css" data-diagram-type="DESCRIPTION" height="452px" preserveAspectRatio="none" style="width:1350px;height:452px;background:#FFFFFF;" version="1.1" viewBox="0 0 1350 452" width="1350px" zoomAndPan="magnify"><title>Automation Framework - Module: yamlcase</title><defs/><g><g class="title" data-source-line="1"><text fill="#000000" font-family="sans-serif" font-size="14" font-weight="bold" lengthAdjust="spacing" textLength="289.3926" x="523.3037" y="24.5332">Automation Framework - Module: yamlcase</text></g><!--cluster yamlcase--><g class="cluster" data-qualified-name="yamlcase" data-source-line="11" id="ent0004"><rect fill="none" height="212" rx="2.5" ry="2.5" style="stroke:#181818;stroke-width:1;" width="571.5" x="327" y="104.1094"/><text fill="#000000" font-family="sans-serif" font-size="14" font-weight="bold" lengthAdjust="spacing" textLength="63.0547" x="581.2227" y="120.6426">yamlcase</text></g><!--cluster Dependencies--><g class="cluster" data-qualified-name="Dependencies" data-source-line="17" id="ent0008"><rect fill="none" height="271" rx="2.5" ry="2.5" style="stroke:#181818;stroke-width:1;" width="209" x="1135" y="175.1094"/><text fill="#000000" font-family="sans-serif" font-size="14" font-weight="bold" lengthAdjust="spacing" textLength="94.9238" x="1192.0381" y="191.6426">Dependencies</text></g><!--entity Loader--><g class="entity" data-qualified-name="yamlcase.Loader" data-source-line="12" id="ent0005"><rect fill="#F1F1F1" height="55.2188" rx="2.5" ry="2.5" style="stroke:#181818;stroke-width:0.5;" width="123.5029" x="343" y="241.6094"/><text fill="#000000" font-family="sans-serif" font-size="14" lengthAdjust="spacing" textLength="57.5928" x="353" y="266.1426">loader.py</text><text fill="#000000" font-family="sans-serif" font-size="14" lengthAdjust="spacing" textLength="103.5029" x="353" y="283.752">load_test_case()</text></g><!--entity Guards--><g class="entity" data-qualified-name="yamlcase.Guards" data-source-line="13" id="ent0006"><rect fill="#F1F1F1" height="37.6094" rx="2.5" ry="2.5" style="stroke:#181818;stroke-width:0.5;" width="133.6338" x="731" y="153.1094"/><text fill="#000000" font-family="sans-serif" font-size="14" lengthAdjust="spacing" textLength="113.6338" x="741" y="177.6426">_ensure_* helpers</text></g><!--entity Validator--><g class="entity" data-qualified-name="yamlcase.Validator" data-source-line="14" id="ent0007"><rect fill="#F1F1F1" height="37.6094" rx="2.5" ry="2.5" style="stroke:#181818;stroke-width:0.5;" width="168.6338" x="713.5" y="226.1094"/><text fill="#000000" font-family="sans-serif" font-size="14" lengthAdjust="spacing" textLength="148.6338" x="723.5" y="250.6426">_validate_stage_items()</text></g><!--entity YamlLib--><g class="entity" data-qualified-name="Dependencies.YamlLib" data-source-line="18" id="ent0009"><rect fill="#F1F1F1" height="55.2188" rx="2.5" ry="2.5" style="stroke:#181818;stroke-width:0.5;" width="90.041" x="1194.5" y="301.6094"/><text fill="#000000" font-family="sans-serif" font-size="14" lengthAdjust="spacing" textLength="54.4619" x="1204.5" y="326.1426">PyYAML</text><text fill="#000000" font-family="sans-serif" font-size="14" lengthAdjust="spacing" textLength="70.041" x="1204.5" y="343.752">safe_load()</text></g><!--entity TestCase--><g class="entity" data-qualified-name="Dependencies.TestCase" data-source-line="19" id="ent0010"><rect fill="#F1F1F1" height="37.6094" rx="2.5" ry="2.5" style="stroke:#181818;stroke-width:0.5;" width="160.0547" x="1159.5" y="392.1094"/><text fill="#000000" font-family="sans-serif" font-size="14" lengthAdjust="spacing" textLength="140.0547" x="1169.5" y="416.6426">core.models.TestCase</text></g><!--entity SpecRegistry--><g class="entity" data-qualified-name="Dependencies.SpecRegistry" data-source-line="20" id="ent0011"><rect fill="#F1F1F1" height="55.2188" rx="2.5" ry="2.5" style="stroke:#181818;stroke-width:0.5;" width="177.1992" x="1151" y="211.6094"/><text fill="#000000" font-family="sans-serif" font-size="14" lengthAdjust="spacing" textLength="127.6133" x="1161" y="236.1426">runner.spec_registry</text><text fill="#000000" font-family="sans-serif" font-size="14" lengthAdjust="spacing" textLength="157.1992" x="1161" y="253.752">build_registered_*_args()</text></g><!--entity User--><g class="entity" data-qualified-name="User" data-source-line="8" id="ent0002"><ellipse cx="49.5791" cy="238.6094" fill="#F1F1F1" rx="8" ry="8" style="stroke:#181818;stroke-width:0.5;"/><path d="M49.5791,246.6094 L49.5791,273.6094 M36.5791,254.6094 L62.5791,254.6094 M49.5791,273.6094 L36.5791,288.6094 M49.5791,273.6094 L62.5791,288.6094" fill="none" style="stroke:#181818;stroke-width:0.5;"/><text fill="#000000" font-family="sans-serif" font-size="14" lengthAdjust="spacing" textLength="87.1582" x="6" y="304.6426">Test Engineer</text></g><!--entity CaseYaml--><g class="entity" data-qualified-name="CaseYaml" data-source-line="9" id="ent0003"><rect fill="#F1F1F1" height="40.6094" rx="2.5" ry="2.5" style="stroke:#181818;stroke-width:0.5;" width="93.0205" x="154" y="248.6094"/><polygon fill="#F1F1F1" points="230.0205,253.6094,230.0205,267.6094,242.0205,267.6094,242.0205,259.6094,236.0205,253.6094,230.0205,253.6094" style="stroke:#181818;stroke-width:0.5;"/><line style="stroke:#181818;stroke-width:0.5;" x1="236.0205" x2="236.0205" y1="253.6094" y2="259.6094"/><line style="stroke:#181818;stroke-width:0.5;" x1="242.0205" x2="236.0205" y1="259.6094" y2="259.6094"/><text fill="#000000" font-family="sans-serif" font-size="14" lengthAdjust="spacing" textLength="63.0205" x="164" y="276.1426">case.yaml</text></g><g class="entity" data-qualified-name="GMN19" data-source-line="32" id="ent0020"><path d="M658,44.6094 L658,87.3125 L937.6924,87.3125 L937.6924,54.6094 L927.6924,44.6094 L658,44.6094" fill="#FEFFDD" style="stroke:#181818;stroke-width:0.5;"/><path d="M927.6924,44.6094 L927.6924,54.6094 L937.6924,54.6094 L927.6924,44.6094" fill="#FEFFDD" style="stroke:#181818;stroke-width:1;"/><text fill="#000000" font-family="sans-serif" font-size="13" lengthAdjust="spacing" textLength="258.6924" x="664" y="63.1045">yamlcase validates the scenario shape early,</text><text fill="#000000" font-family="sans-serif" font-size="13" lengthAdjust="spacing" textLength="198.7197" x="664" y="79.4561">before runtime compilation begins.</text></g><!--link User to CaseYaml--><g class="link" data-entity-1="ent0002" data-entity-2="ent0003" data-link-type="dependency" data-source-line="23" id="lnk12"><path d="M93.2,269.1094 C112.2,269.1094 128.61,269.1094 147.93,269.1094" fill="none" id="User-to-CaseYaml" style="stroke:#181818;stroke-width:1;"/><polygon fill="#181818" points="153.93,269.1094,144.93,265.1094,148.93,269.1094,144.93,273.1094,153.93,269.1094" style="stroke:#181818;stroke-width:1;"/></g><!--link CaseYaml to Loader--><g class="link" data-entity-1="ent0003" data-entity-2="ent0005" data-link-type="dependency" data-source-line="24" id="lnk13"><path d="M247.2,269.1094 C275.43,269.1094 306,269.1094 336.72,269.1094" fill="none" id="CaseYaml-to-Loader" style="stroke:#181818;stroke-width:1;"/><polygon fill="#181818" points="342.72,269.1094,333.72,265.1094,337.72,269.1094,333.72,273.1094,342.72,269.1094" style="stroke:#181818;stroke-width:1;"/><text fill="#000000" font-family="sans-serif" font-size="13" lengthAdjust="spacing" textLength="32.519" x="278" y="265.6045">parse</text></g><!--link Loader to YamlLib--><g class="link" data-entity-1="ent0005" data-entity-2="ent0009" data-link-type="dependency" data-source-line="25" id="lnk14"><path d="M467.24,277.5794 C518.2,284.3394 592.7,293.5794 658,299.1094 C857.85,316.0494 1091.283,324.581 1188.373,327.631" fill="none" id="Loader-to-YamlLib" style="stroke:#181818;stroke-width:1;"/><polygon fill="#181818" points="1194.37,327.8194,1185.5,323.5388,1189.3725,327.6624,1185.2488,331.5348,1194.37,327.8194" style="stroke:#181818;stroke-width:1;"/><text fill="#000000" font-family="sans-serif" font-size="13" lengthAdjust="spacing" textLength="65.0381" x="765.5" y="295.6045">safe_load()</text></g><!--link Loader to Guards--><g class="link" data-entity-1="ent0005" data-entity-2="ent0006" data-link-type="dependency" data-source-line="26" id="lnk15"><path d="M465.53,241.4494 C475.88,237.2594 486.65,233.2894 497,230.1094 C575.73,205.9294 663.3632,190.6178 724.8232,181.6278" fill="none" id="Loader-to-Guards" style="stroke:#181818;stroke-width:1;"/><polygon fill="#181818" points="730.76,180.7594,721.2758,178.1041,725.8126,181.483,722.4337,186.0199,730.76,180.7594" style="stroke:#181818;stroke-width:1;"/><text fill="#000000" font-family="sans-serif" font-size="13" lengthAdjust="spacing" textLength="123.5571" x="501" y="162.6045">normalize mappings /</text><text fill="#000000" font-family="sans-serif" font-size="13" lengthAdjust="spacing" textLength="29.6118" x="547.9727" y="178.9561">lists /</text><text fill="#000000" font-family="sans-serif" font-size="13" lengthAdjust="spacing" textLength="75.1499" x="525.2036" y="195.3076">named maps</text></g><!--link Loader to Validator--><g class="link" data-entity-1="ent0005" data-entity-2="ent0007" data-link-type="dependency" data-source-line="27" id="lnk16"><path d="M467.33,270.9794 C511.95,271.8194 573.79,271.8994 628,268.1094 C655.91,266.1594 680.3085,263.345 707.4685,259.525" fill="none" id="Loader-to-Validator" style="stroke:#181818;stroke-width:1;"/><polygon fill="#181818" points="713.41,258.6894,703.9406,255.9819,708.4587,259.3858,705.0548,263.9039,713.41,258.6894" style="stroke:#181818;stroke-width:1;"/><text fill="#000000" font-family="sans-serif" font-size="13" lengthAdjust="spacing" textLength="129.3525" x="498" y="248.6045">validate setup / steps /</text><text fill="#000000" font-family="sans-serif" font-size="13" lengthAdjust="spacing" textLength="126.4517" x="499.4504" y="264.9561">verification / teardown</text></g><!--link Validator to SpecRegistry--><g class="link" data-entity-1="ent0007" data-entity-2="ent0011" data-link-type="dependency" data-source-line="28" id="lnk17"><path d="M882.7,243.9694 C959.54,242.9194 1066.9506,241.4517 1144.9706,240.3817" fill="none" id="Validator-to-SpecRegistry" style="stroke:#181818;stroke-width:1;"/><polygon fill="#181818" points="1150.97,240.2994,1141.916,236.4232,1145.9705,240.3679,1142.0257,244.4224,1150.97,240.2994" style="stroke:#181818;stroke-width:1;"/><text fill="#000000" font-family="sans-serif" font-size="13" lengthAdjust="spacing" textLength="149.5825" x="969" y="237.6045">validate action/check args</text></g><!--link Loader to TestCase--><g class="link" data-entity-1="ent0005" data-entity-2="ent0010" data-link-type="dependency" data-source-line="29" id="lnk18"><path d="M467.24,294.7294 C477.11,298.4594 487.27,302.0594 497,305.1094 C567.14,327.1394 585.59,330.3694 658,343.1094 C835.88,374.4094 1041.0722,394.5435 1153.2322,404.2235" fill="none" id="Loader-to-TestCase" style="stroke:#181818;stroke-width:1;"/><polygon fill="#181818" points="1159.21,404.7394,1150.5873,399.9803,1154.2285,404.3094,1149.8994,407.9507,1159.21,404.7394" style="stroke:#181818;stroke-width:1;"/><text fill="#000000" font-family="sans-serif" font-size="13" lengthAdjust="spacing" textLength="97.5571" x="749.5" y="339.6045">build case model</text></g><!--link Validator to GMN19--><g class="link" data-entity-1="ent0007" data-entity-2="ent0020" data-link-type="association" data-source-line="32" id="lnk21"><path d="M713.24,249.7994 C661.08,247.6394 597.69,234.8794 562.5,190.6094 C521.7,139.2994 598.29,106.6394 674.77,87.7094" fill="none" id="Validator-GMN19" style="stroke:#181818;stroke-width:1;stroke-dasharray:7,7;"/></g><?plantuml-src PLDDRzim3BthLn0-RSMIt7iOK7GVbnGOrcr0WGA68j6E45aIABf1Dko_ZrBinkbkflaU-Hv9iMEFS3To73Ix6E0BwG6FaGwmWeTeHu-tSDA3DpgZKXux1ev0hjypM4Te2albWmj92nNoNjjuTA67JdkXN38c3Ya63Fp89-bPg3hqVWb9sXnqZsy1IXkE1CqFp0oVG-y28ZMWC_pCI4eJkquWq1IHwwAs9kybUf90gQakDBEJ1luek2Y2naTjaTRfz1pAPylIgYt8T-zhhMtDNtDQ37aaR6zWZpuXvOhyEcgo-GtoHNjdDMERMNIqZd78K-LVvrGazNSXz1Cc31Q3SPZ_4_ljz7Jti7qEMNVO5hbJgM9swtRNO1C9rqEqwFEw3F2-sXVq75p3QGn11f4JcfQmTvb9Ph8RdRTJZ8IslMarzRE5Hm5_dx35HTaAh5OVBnkOF-hVyopXLjPDqduAIsOo8Ac5jINWF5p9XqY33Eutmg1JadFBi97LYOJw4UI8RKdb9Vjrr59WtWXav3711iHOgjmN9DSvStuE6s2Kbl4Or8LTQYqzBylf-Y0sPe_c06L6Im7po8LG9mhbmg0kHwaGXRwBB4yHOhUu2tXzWAzjCl1Uf1iCcbmiZouXY51_-Y3m7NQoT91LiXkmRjVviv-TI0vvhUIue3HK_m00?></g></svg>