<?plantuml 1.2026.2?><svg xmlns="http://www.w3.org/2000/svg" xmlns:xlink="http://www.w3.org/1999/xlink" contentStyleType="text/css" data-diagram-type="DESCRIPTION" height="442px" preserveAspectRatio="none" style="width:829px;height:442px;background:#FFFFFF;" version="1.1" viewBox="0 0 829 442" width="829px" zoomAndPan="magnify"><title>Automation Framework - Module: imaging</title><defs/><g><g class="title" data-source-line="1"><text fill="#000000" font-family="sans-serif" font-size="14" font-weight="bold" lengthAdjust="spacing" textLength="280.0068" x="267.4966" y="24.5332">Automation Framework - Module: imaging</text></g><!--cluster imaging--><g class="cluster" data-qualified-name="imaging" data-source-line="8" id="ent0002"><rect fill="none" height="307" rx="2.5" ry="2.5" style="stroke:#181818;stroke-width:1;" width="507" x="316" y="120.1094"/><text fill="#000000" font-family="sans-serif" font-size="14" font-weight="bold" lengthAdjust="spacing" textLength="53.6689" x="542.6655" y="136.6426">imaging</text></g><!--cluster Primary Consumers--><g class="cluster" data-qualified-name="Primary Consumers" data-source-line="15" id="ent0007"><rect fill="none" height="272" rx="2.5" ry="2.5" style="stroke:#181818;stroke-width:1;" width="176" x="7" y="164.1094"/><text fill="#000000" font-family="sans-serif" font-size="14" font-weight="bold" lengthAdjust="spacing" textLength="133.0547" x="28.4727" y="180.6426">Primary Consumers</text></g><!--entity AdapterBase--><g class="entity" data-qualified-name="imaging.AdapterBase" data-source-line="9" id="ent0003"><rect fill="#F1F1F1" height="55.2188" rx="2.5" ry="2.5" style="stroke:#181818;stroke-width:0.5;" width="154.6406" x="332" y="264.6094"/><text fill="#000000" font-family="sans-serif" font-size="14" lengthAdjust="spacing" textLength="98.0684" x="342" y="289.1426">opencv/base.py</text><text fill="#000000" font-family="sans-serif" font-size="14" lengthAdjust="spacing" textLength="134.6406" x="342" y="306.752">OpenCVAdapterBase</text></g><!--entity Cache--><g class="entity" data-qualified-name="imaging.Cache" data-source-line="10" id="ent0004"><rect fill="#F1F1F1" height="37.6094" rx="2.5" ry="2.5" style="stroke:#181818;stroke-width:0.5;" width="155.4199" x="652" y="373.1094"/><text fill="#000000" font-family="sans-serif" font-size="14" lengthAdjust="spacing" textLength="135.4199" x="662" y="397.6426">_path_image_cache()</text></g><!--entity DependencyGuards--><g class="entity" data-qualified-name="imaging.DependencyGuards" data-source-line="11" id="ent0005"><rect fill="#F1F1F1" height="72.8281" rx="2.5" ry="2.5" style="stroke:#181818;stroke-width:0.5;" width="130.4893" x="664.5" y="264.6094"/><text fill="#000000" font-family="sans-serif" font-size="14" lengthAdjust="spacing" textLength="90.2549" x="674.5" y="289.1426">require_cv2() /</text><text fill="#000000" font-family="sans-serif" font-size="14" lengthAdjust="spacing" textLength="110.4893" x="674.5" y="306.752">require_numpy() /</text><text fill="#000000" font-family="sans-serif" font-size="14" lengthAdjust="spacing" textLength="95.7031" x="674.5" y="324.3613">require_pillow()</text></g><!--entity Operations--><g class="entity" data-qualified-name="imaging.Operations" data-source-line="12" id="ent0006"><rect fill="#F1F1F1" height="72.8281" rx="2.5" ry="2.5" style="stroke:#181818;stroke-width:0.5;" width="104.8135" x="677" y="156.6094"/><text fill="#000000" font-family="sans-serif" font-size="14" lengthAdjust="spacing" textLength="84.0342" x="687" y="181.1426">to_ndarray() /</text><text fill="#000000" font-family="sans-serif" font-size="14" lengthAdjust="spacing" textLength="84.8135" x="687" y="198.752">clip_region() /</text><text fill="#000000" font-family="sans-serif" font-size="14" lengthAdjust="spacing" textLength="78.5791" x="687" y="216.3613">preprocess()</text></g><!--entity Detectors--><g class="entity" data-qualified-name="Primary Consumers.Detectors" data-source-line="16" id="ent0008"><rect fill="#F1F1F1" height="37.6094" rx="2.5" ry="2.5" style="stroke:#181818;stroke-width:0.5;" width="117.2686" x="36.5" y="200.1094"/><text fill="#000000" font-family="sans-serif" font-size="14" lengthAdjust="spacing" textLength="97.2686" x="46.5" y="224.6426">vision.detectors</text></g><!--entity OCR--><g class="entity" data-qualified-name="Primary Consumers.OCR" data-source-line="17" id="ent0009"><rect fill="#F1F1F1" height="37.6094" rx="2.5" ry="2.5" style="stroke:#181818;stroke-width:0.5;" width="79.1309" x="55.5" y="273.1094"/><text fill="#000000" font-family="sans-serif" font-size="14" lengthAdjust="spacing" textLength="59.1309" x="65.5" y="297.6426">vision.ocr</text></g><!--entity OpenCVVision--><g class="entity" data-qualified-name="Primary Consumers.OpenCVVision" data-source-line="18" id="ent0010"><rect fill="#F1F1F1" height="72.8281" rx="2.5" ry="2.5" style="stroke:#181818;stroke-width:0.5;" width="144.4893" x="23" y="346.6094"/><text fill="#000000" font-family="sans-serif" font-size="14" lengthAdjust="spacing" textLength="84.8271" x="33" y="371.1426">vision.opencv</text><text fill="#000000" font-family="sans-serif" font-size="14" lengthAdjust="spacing" textLength="124.4893" x="33" y="388.752">matchers / readers /</text><text fill="#000000" font-family="sans-serif" font-size="14" lengthAdjust="spacing" textLength="77.8066" x="33" y="406.3613">comparators</text></g><g class="entity" data-qualified-name="GMN17" data-source-line="29" id="ent0018"><path d="M227,44.6094 L227,103.6641 A0,0 0 0 0 227,103.6641 L405.5,103.6641 L409.5,264.4294 L413.5,103.6641 L591.9604,103.6641 A0,0 0 0 0 591.9604,103.6641 L591.9604,54.6094 L581.9604,44.6094 L227,44.6094 A0,0 0 0 0 227,44.6094" fill="#FEFFDD" style="stroke:#181818;stroke-width:0.5;"/><path d="M581.9604,44.6094 L581.9604,54.6094 L591.9604,54.6094 L581.9604,44.6094" fill="#FEFFDD" style="stroke:#181818;stroke-width:0.5;"/><text fill="#000000" font-family="sans-serif" font-size="13" lengthAdjust="spacing" textLength="308.5405" x="233" y="63.1045">The imaging module is a shared technical utility layer.</text><text fill="#000000" font-family="sans-serif" font-size="13" lengthAdjust="spacing" textLength="343.9604" x="233" y="79.4561">It centralizes OpenCV dependency checks, image coercion,</text><text fill="#000000" font-family="sans-serif" font-size="13" lengthAdjust="spacing" textLength="248.606" x="233" y="95.8076">path caching, cropping, and preprocessing.</text></g><!--link AdapterBase to Cache--><g class="link" data-entity-1="ent0003" data-entity-2="ent0004" data-link-type="dependency" data-source-line="21" id="lnk11"><path d="M487.07,316.1894 C542.58,333.6394 610.8764,355.1192 662.2564,371.2792" fill="none" id="AdapterBase-to-Cache" style="stroke:#181818;stroke-width:1;"/><polygon fill="#181818" points="667.98,373.0794,660.5947,366.5634,663.2104,371.5792,658.1945,374.1948,667.98,373.0794" style="stroke:#181818;stroke-width:1;"/></g><!--link AdapterBase to DependencyGuards--><g class="link" data-entity-1="ent0003" data-entity-2="ent0005" data-link-type="dependency" data-source-line="22" id="lnk12"><path d="M487.07,294.2794 C541.29,295.8094 607.1824,297.6795 658.3724,299.1295" fill="none" id="AdapterBase-to-DependencyGuards" style="stroke:#181818;stroke-width:1;"/><polygon fill="#181818" points="664.37,299.2994,655.4869,295.0461,659.372,299.1578,655.2604,303.0429,664.37,299.2994" style="stroke:#181818;stroke-width:1;"/></g><!--link AdapterBase to Operations--><g class="link" data-entity-1="ent0003" data-entity-2="ent0006" data-link-type="dependency" data-source-line="23" id="lnk13"><path d="M487.07,268.2694 C545.88,249.9594 619.7612,226.9627 671.1912,210.9527" fill="none" id="AdapterBase-to-Operations" style="stroke:#181818;stroke-width:1;"/><polygon fill="#181818" points="676.92,209.1694,667.1378,208.0252,672.146,210.6555,669.5157,215.6637,676.92,209.1694" style="stroke:#181818;stroke-width:1;"/></g><!--link Detectors to AdapterBase--><g class="link" data-entity-1="ent0008" data-entity-2="ent0003" data-link-type="dependency" data-source-line="24" id="lnk14"><path d="M153.68,232.5794 C203.86,244.2994 271.1073,260.0145 326.1573,272.8745" fill="none" id="Detectors-to-AdapterBase" style="stroke:#181818;stroke-width:1;"/><polygon fill="#181818" points="332,274.2394,324.1459,268.2969,327.1311,273.102,322.326,276.0872,332,274.2394" style="stroke:#181818;stroke-width:1;"/></g><!--link OCR to AdapterBase--><g class="link" data-entity-1="ent0009" data-entity-2="ent0003" data-link-type="dependency" data-source-line="25" id="lnk15"><path d="M134.63,292.1094 C183.62,292.1094 263.23,292.1094 325.72,292.1094" fill="none" id="OCR-to-AdapterBase" style="stroke:#181818;stroke-width:1;"/><polygon fill="#181818" points="331.72,292.1094,322.72,288.1094,326.72,292.1094,322.72,296.1094,331.72,292.1094" style="stroke:#181818;stroke-width:1;"/></g><!--link OpenCVVision to AdapterBase--><g class="link" data-entity-1="ent0010" data-entity-2="ent0003" data-link-type="dependency" data-source-line="26" id="lnk16"><path d="M167.3,362.3494 C216.39,348.0494 275.7895,330.7575 326.0095,316.1275" fill="none" id="OpenCVVision-to-AdapterBase" style="stroke:#181818;stroke-width:1;"/><polygon fill="#181818" points="331.77,314.4494,322.0104,313.1262,326.9696,315.8478,324.248,320.807,331.77,314.4494" style="stroke:#181818;stroke-width:1;"/></g><?plantuml-src RLDDRzim3BtxLn0vjK0-W1rt6D2bsD13iM4RUWfWi19Z2v4bZP8JUCF--oZ5IPsaDudaUoGVoMII9NZea-ym6U_W2sD71yyxMC2prxsbZs0wR8nhgihIDa7omAPf4sZ3f3AeYZlZ0WeIOelQ7oGOjcWZJJpATy4xSkbd6YHbXg9hx3GaeDfXGzS1rMY7sLZ83FvMy4O8Cn_8gVtg5ICjmx1nt-I_VddG61BnPx7E02DC_fVmEc1gwqnEjKBLqjrz0Qpp-pAKwNSlRTTg_-7k7bORTpAulWl3fIaOQ_rXv7eagKbBcSFN7bd7IzhaQwUH6KSAPKsecHeHzsW8J86zeXX7FccHoyHYzM-Yq7UMDdY0jJZwZZZUQBKtKL1BJKa4zZcWL3V-tetrYeyvrp_UznVvDqvMI0JZ22kP7khoabuaNiPxpdKSpak1vjedOu75ujEe-hNrHh_hW8aWvswAOpfswU3MDgddnbavdmXUVP830R-zsg5VBPsE0xfoB60YOBu29WrIHUkCGWjzCjQa0ImEn4j1FYLG8Y6ZDN_ef0deSvCW6gXTd1Tw4is9bTGt5sXULiXhAbddeDY7K5xeDBojYPYMbP11Rg3w3m00?></g></svg>