<?plantuml 1.2026.2?><svg xmlns="http://www.w3.org/2000/svg" xmlns:xlink="http://www.w3.org/1999/xlink" contentStyleType="text/css" data-diagram-type="DESCRIPTION" height="562px" preserveAspectRatio="none" style="width:1057px;height:562px;background:#FFFFFF;" version="1.1" viewBox="0 0 1057 562" width="1057px" zoomAndPan="magnify"><title>Automation Framework - Module: actions</title><defs/><g><g class="title" data-source-line="1"><text fill="#000000" font-family="sans-serif" font-size="14" font-weight="bold" lengthAdjust="spacing" textLength="275.3516" x="383.8242" y="24.5332">Automation Framework - Module: actions</text></g><!--cluster actions--><g class="cluster" data-qualified-name="actions" data-source-line="8" id="ent0002"><rect fill="none" height="216" rx="2.5" ry="2.5" style="stroke:#181818;stroke-width:1;" width="1019" x="7" y="340.6094"/><text fill="#000000" font-family="sans-serif" font-size="14" font-weight="bold" lengthAdjust="spacing" textLength="49.0137" x="491.9932" y="357.1426">actions</text></g><!--cluster actions.advanced--><g class="cluster" data-qualified-name="actions.advanced" data-source-line="16" id="ent0008"><rect fill="none" height="163" rx="2.5" ry="2.5" style="stroke:#181818;stroke-width:1;" width="759" x="62" y="143.6094"/><text fill="#000000" font-family="sans-serif" font-size="14" font-weight="bold" lengthAdjust="spacing" textLength="117.4893" x="382.7554" y="160.1426">actions.advanced</text></g><!--cluster Dependencies--><g class="cluster" data-qualified-name="Dependencies" data-source-line="23" id="ent0013"><rect fill="none" height="271" rx="2.5" ry="2.5" style="stroke:#181818;stroke-width:1;" width="202" x="849" y="45.6094"/><text fill="#000000" font-family="sans-serif" font-size="14" font-weight="bold" lengthAdjust="spacing" textLength="94.9238" x="902.5381" y="62.1426">Dependencies</text></g><!--entity Browser--><g class="entity" data-qualified-name="actions.Browser" data-source-line="9" id="ent0003"><rect fill="#F1F1F1" height="55.2188" rx="2.5" ry="2.5" style="stroke:#181818;stroke-width:0.5;" width="119.5996" x="890" y="476.1094"/><text fill="#000000" font-family="sans-serif" font-size="14" lengthAdjust="spacing" textLength="68.4688" x="900" y="500.6426">browser.py</text><text fill="#000000" font-family="sans-serif" font-size="14" lengthAdjust="spacing" textLength="99.5996" x="900" y="518.252">browser helpers</text></g><!--entity BaseActions--><g class="entity" data-qualified-name="actions.BaseActions" data-source-line="10" id="ent0004"><rect fill="#F1F1F1" height="72.8281" rx="2.5" ry="2.5" style="stroke:#181818;stroke-width:0.5;" width="149.9238" x="648.5" y="467.1094"/><text fill="#000000" font-family="sans-serif" font-size="14" lengthAdjust="spacing" textLength="49.0342" x="658.5" y="491.6426">base.py</text><text fill="#000000" font-family="sans-serif" font-size="14" lengthAdjust="spacing" textLength="89.8857" x="658.5" y="509.252">BaseActions +</text><text fill="#000000" font-family="sans-serif" font-size="14" lengthAdjust="spacing" textLength="129.9238" x="658.5" y="526.8613">BrowserActionsMixin</text></g><!--entity VisionRuntime--><g class="entity" data-qualified-name="actions.VisionRuntime" data-source-line="11" id="ent0005"><rect fill="#F1F1F1" height="55.2188" rx="2.5" ry="2.5" style="stroke:#181818;stroke-width:0.5;" width="149.1719" x="649" y="377.1094"/><text fill="#000000" font-family="sans-serif" font-size="14" lengthAdjust="spacing" textLength="108.9375" x="659" y="401.6426">vision_runtime.py</text><text fill="#000000" font-family="sans-serif" font-size="14" lengthAdjust="spacing" textLength="129.1719" x="659" y="419.252">ActionVisionRuntime</text></g><!--entity Resolution--><g class="entity" data-qualified-name="actions.Resolution" data-source-line="12" id="ent0006"><rect fill="#F1F1F1" height="55.2188" rx="2.5" ry="2.5" style="stroke:#181818;stroke-width:0.5;" width="217.6338" x="23" y="377.1094"/><text fill="#000000" font-family="sans-serif" font-size="14" lengthAdjust="spacing" textLength="131.5098" x="33" y="401.6426">service_resolution.py</text><text fill="#000000" font-family="sans-serif" font-size="14" lengthAdjust="spacing" textLength="197.6338" x="33" y="419.252">runtime-facing service protocols</text></g><!--entity Services--><g class="entity" data-qualified-name="actions.Services" data-source-line="13" id="ent0007"><rect fill="#F1F1F1" height="55.2188" rx="2.5" ry="2.5" style="stroke:#181818;stroke-width:0.5;" width="112.5928" x="385" y="377.1094"/><text fill="#000000" font-family="sans-serif" font-size="14" lengthAdjust="spacing" textLength="70.0205" x="395" y="401.6426">services.py</text><text fill="#000000" font-family="sans-serif" font-size="14" lengthAdjust="spacing" textLength="92.5928" x="395" y="419.252">ActionServices</text></g><!--entity TextActions--><g class="entity" data-qualified-name="actions.advanced.TextActions" data-source-line="17" id="ent0009"><rect fill="#F1F1F1" height="37.6094" rx="2.5" ry="2.5" style="stroke:#181818;stroke-width:0.5;" width="93.1377" x="395" y="252.6094"/><text fill="#000000" font-family="sans-serif" font-size="14" lengthAdjust="spacing" textLength="73.1377" x="405" y="277.1426">TextActions</text></g><!--entity ObjectActions--><g class="entity" data-qualified-name="actions.advanced.ObjectActions" data-source-line="18" id="ent0010"><rect fill="#F1F1F1" height="37.6094" rx="2.5" ry="2.5" style="stroke:#181818;stroke-width:0.5;" width="106.3721" x="388.5" y="179.6094"/><text fill="#000000" font-family="sans-serif" font-size="14" lengthAdjust="spacing" textLength="86.3721" x="398.5" y="204.1426">ObjectActions</text></g><!--entity LocateActions--><g class="entity" data-qualified-name="actions.advanced.LocateActions" data-source-line="19" id="ent0011"><rect fill="#F1F1F1" height="37.6094" rx="2.5" ry="2.5" style="stroke:#181818;stroke-width:0.5;" width="107.9443" x="78" y="252.6094"/><text fill="#000000" font-family="sans-serif" font-size="14" lengthAdjust="spacing" textLength="87.9443" x="88" y="277.1426">LocateActions</text></g><!--entity AdvancedSupport--><g class="entity" data-qualified-name="actions.advanced.AdvancedSupport" data-source-line="20" id="ent0012"><rect fill="#F1F1F1" height="72.8281" rx="2.5" ry="2.5" style="stroke:#181818;stroke-width:0.5;" width="163.1992" x="642" y="180.1094"/><text fill="#000000" font-family="sans-serif" font-size="14" lengthAdjust="spacing" textLength="129.9238" x="652" y="204.6426">DebugArtifactWriter /</text><text fill="#000000" font-family="sans-serif" font-size="14" lengthAdjust="spacing" textLength="78.5723" x="652" y="222.252">RetryPolicy /</text><text fill="#000000" font-family="sans-serif" font-size="14" lengthAdjust="spacing" textLength="143.1992" x="652" y="239.8613">shared capture helpers</text></g><!--entity Capture--><g class="entity" data-qualified-name="Dependencies.Capture" data-source-line="24" id="ent0014"><rect fill="#F1F1F1" height="37.6094" rx="2.5" ry="2.5" style="stroke:#181818;stroke-width:0.5;" width="170.1855" x="865" y="262.6094"/><text fill="#000000" font-family="sans-serif" font-size="14" lengthAdjust="spacing" textLength="150.1855" x="875" y="287.1426">capture.WindowCapture</text></g><!--entity Vision--><g class="entity" data-qualified-name="Dependencies.Vision" data-source-line="25" id="ent0015"><rect fill="#F1F1F1" height="55.2188" rx="2.5" ry="2.5" style="stroke:#181818;stroke-width:0.5;" width="163.1514" x="868.5" y="172.1094"/><text fill="#000000" font-family="sans-serif" font-size="14" lengthAdjust="spacing" textLength="143.1514" x="878.5" y="196.6426">vision Detector / OCR /</text><text fill="#000000" font-family="sans-serif" font-size="14" lengthAdjust="spacing" textLength="98.0684" x="878.5" y="214.252">pipeline queries</text></g><!--entity Core--><g class="entity" data-qualified-name="Dependencies.Core" data-source-line="26" id="ent0016"><rect fill="#F1F1F1" height="55.2188" rx="2.5" ry="2.5" style="stroke:#181818;stroke-width:0.5;" width="104.0342" x="898" y="82.1094"/><text fill="#000000" font-family="sans-serif" font-size="14" lengthAdjust="spacing" textLength="84.0342" x="908" y="106.6426">core models /</text><text fill="#000000" font-family="sans-serif" font-size="14" lengthAdjust="spacing" textLength="66.9307" x="908" y="124.252">exceptions</text></g><g class="entity" data-qualified-name="GMN34" data-source-line="48" id="ent0035"><path d="M301,68.1094 L301,127.1641 L582.1206,127.1641 L582.1206,78.1094 L572.1206,68.1094 L301,68.1094" fill="#FEFFDD" style="stroke:#181818;stroke-width:0.5;"/><path d="M572.1206,68.1094 L572.1206,78.1094 L582.1206,78.1094 L572.1206,68.1094" fill="#FEFFDD" style="stroke:#181818;stroke-width:1;"/><text fill="#000000" font-family="sans-serif" font-size="13" lengthAdjust="spacing" textLength="260.1206" x="307" y="86.6045">ActionServices is the composition root for the</text><text fill="#000000" font-family="sans-serif" font-size="13" lengthAdjust="spacing" textLength="235.5869" x="307" y="102.9561">action layer. It exposes base, locate, and</text><text fill="#000000" font-family="sans-serif" font-size="13" lengthAdjust="spacing" textLength="245.686" x="307" y="119.3076">screenshot-capable services to the runner.</text></g><!--link BaseActions to Browser--><g class="link" data-entity-1="ent0004" data-entity-2="ent0003" data-link-type="dependency" data-source-line="29" id="lnk17"><path d="M798.63,503.6094 C828.26,503.6094 855.91,503.6094 883.86,503.6094" fill="none" id="BaseActions-to-Browser" style="stroke:#181818;stroke-width:1;"/><polygon fill="#181818" points="889.86,503.6094,880.86,499.6094,884.86,503.6094,880.86,507.6094,889.86,503.6094" style="stroke:#181818;stroke-width:1;"/></g><!--link BaseActions to Capture--><g class="link" data-entity-1="ent0004" data-entity-2="ent0014" data-link-type="dependency" data-source-line="30" id="lnk18"><path d="M798.65,476.8994 C810.37,469.6894 821.18,460.7094 829,449.6094 C851.99,416.9894 820.59,394.9094 841,360.6094 C856.68,334.2594 879.6758,317.0303 903.3458,303.6603" fill="none" id="BaseActions-to-Capture" style="stroke:#181818;stroke-width:1;"/><polygon fill="#181818" points="908.57,300.7094,898.7664,301.6529,904.2165,303.1684,902.701,308.6185,908.57,300.7094" style="stroke:#181818;stroke-width:1;"/></g><!--link BaseActions to Core--><g class="link" data-entity-1="ent0004" data-entity-2="ent0016" data-link-type="dependency" data-source-line="31" id="lnk19"><path d="M798.73,477.9594 C810.67,470.6194 821.54,461.3194 829,449.6094 C846.63,421.9394 822.25,181.5294 841,154.6094 C854.12,135.7694 870.9561,126.5337 892.0861,120.1537" fill="none" id="BaseActions-to-Core" style="stroke:#181818;stroke-width:1;"/><polygon fill="#181818" points="897.83,118.4194,888.058,117.1916,893.0434,119.8646,890.3704,124.8501,897.83,118.4194" style="stroke:#181818;stroke-width:1;"/></g><!--link VisionRuntime to Vision--><g class="link" data-entity-1="ent0005" data-entity-2="ent0015" data-link-type="dependency" data-source-line="32" id="lnk20"><path d="M782.11,377.0194 C799.89,365.6994 817.73,350.8994 829,332.6094 C849.48,299.3794 817.3,276.6194 841,245.6094 C848.24,236.1394 852.6054,231.5748 863.0654,225.5748" fill="none" id="VisionRuntime-to-Vision" style="stroke:#181818;stroke-width:1;"/><polygon fill="#181818" points="868.27,222.5894,858.4729,223.5978,863.9329,225.0772,862.4534,230.5372,868.27,222.5894" style="stroke:#181818;stroke-width:1;"/></g><!--link VisionRuntime to Core--><g class="link" data-entity-1="ent0005" data-entity-2="ent0016" data-link-type="dependency" data-source-line="33" id="lnk21"><path d="M783.4,377.1094 C801.05,365.8694 818.48,351.0894 829,332.6094 C848.61,298.1494 817.91,186.8394 841,154.6094 C854.31,136.0294 871.0421,126.8435 892.0421,120.4235" fill="none" id="VisionRuntime-to-Core" style="stroke:#181818;stroke-width:1;"/><polygon fill="#181818" points="897.78,118.6694,888.0038,117.4754,892.9985,120.1312,890.3426,125.1258,897.78,118.6694" style="stroke:#181818;stroke-width:1;"/></g><!--link TextActions to VisionRuntime--><g class="link" data-entity-1="ent0009" data-entity-2="ent0005" data-link-type="dependency" data-source-line="34" id="lnk22"><path d="M482.62,290.6694 C530.25,313.2894 604.6501,348.6355 659.0201,374.4555" fill="none" id="TextActions-to-VisionRuntime" style="stroke:#181818;stroke-width:1;"/><polygon fill="#181818" points="664.44,377.0294,658.0261,369.5553,659.9234,374.8845,654.5943,376.7818,664.44,377.0294" style="stroke:#181818;stroke-width:1;"/></g><!--link TextActions to AdvancedSupport--><g class="link" data-entity-1="ent0009" data-entity-2="ent0012" data-link-type="dependency" data-source-line="35" id="lnk23"><path d="M488.11,262.6494 C529.64,254.4894 586.0226,243.4161 635.9526,233.6061" fill="none" id="TextActions-to-AdvancedSupport" style="stroke:#181818;stroke-width:1;"/><polygon fill="#181818" points="641.84,232.4494,632.2377,230.2595,636.9338,233.4133,633.78,238.1094,641.84,232.4494" style="stroke:#181818;stroke-width:1;"/></g><!--link TextActions to Core--><g class="link" data-entity-1="ent0009" data-entity-2="ent0016" data-link-type="dependency" data-source-line="36" id="lnk24"><path d="M488.1,288.7094 C568.22,315.4694 734.68,355.8894 829,270.6094 C848.22,253.2294 825.53,175.3994 841,154.6094 C854.58,136.3594 871.2199,127.2385 892.0899,120.7585" fill="none" id="TextActions-to-Core" style="stroke:#181818;stroke-width:1;"/><polygon fill="#181818" points="897.82,118.9794,888.0387,117.828,893.0449,120.462,890.4109,125.4682,897.82,118.9794" style="stroke:#181818;stroke-width:1;"/></g><!--link ObjectActions to VisionRuntime--><g class="link" data-entity-1="ent0010" data-entity-2="ent0005" data-link-type="dependency" data-source-line="37" id="lnk25"><path d="M494.63,204.6394 C522.27,209.6894 555.81,218.8894 582,235.6094 C585.81,238.0394 657.1678,324.8379 695.9478,372.1779" fill="none" id="ObjectActions-to-VisionRuntime" style="stroke:#181818;stroke-width:1;"/><polygon fill="#181818" points="699.75,376.8194,697.141,367.3224,696.5815,372.9515,690.9524,372.392,699.75,376.8194" style="stroke:#181818;stroke-width:1;"/></g><!--link ObjectActions to AdvancedSupport--><g class="link" data-entity-1="ent0010" data-entity-2="ent0012" data-link-type="dependency" data-source-line="38" id="lnk26"><path d="M494.51,201.9494 C535.87,204.6094 588.4624,207.9943 635.8924,211.0443" fill="none" id="ObjectActions-to-AdvancedSupport" style="stroke:#181818;stroke-width:1;"/><polygon fill="#181818" points="641.88,211.4294,633.1552,206.8601,636.8903,211.1085,632.6419,214.8436,641.88,211.4294" style="stroke:#181818;stroke-width:1;"/></g><!--link ObjectActions to Core--><g class="link" data-entity-1="ent0010" data-entity-2="ent0016" data-link-type="dependency" data-source-line="39" id="lnk27"><path d="M494.57,189.0994 C534.81,181.7794 591.92,171.4494 642,162.6094 C732.02,146.7194 831.0555,129.7186 892.0055,119.3186" fill="none" id="ObjectActions-to-Core" style="stroke:#181818;stroke-width:1;"/><polygon fill="#181818" points="897.92,118.3094,888.3754,115.8802,892.9912,119.1504,889.721,123.7662,897.92,118.3094" style="stroke:#181818;stroke-width:1;"/></g><!--link LocateActions to TextActions--><g class="link" data-entity-1="ent0011" data-entity-2="ent0009" data-link-type="dependency" data-source-line="40" id="lnk28"><path d="M186.21,271.6094 C245.17,271.6094 333.26,271.6094 388.95,271.6094" fill="none" id="LocateActions-to-TextActions" style="stroke:#181818;stroke-width:1;"/><polygon fill="#181818" points="394.95,271.6094,385.95,267.6094,389.95,271.6094,385.95,275.6094,394.95,271.6094" style="stroke:#181818;stroke-width:1;"/></g><!--link LocateActions to ObjectActions--><g class="link" data-entity-1="ent0011" data-entity-2="ent0010" data-link-type="dependency" data-source-line="41" id="lnk29"><path d="M186.21,258.9794 C242.94,245.5094 326.3423,225.7154 382.6123,212.3554" fill="none" id="LocateActions-to-ObjectActions" style="stroke:#181818;stroke-width:1;"/><polygon fill="#181818" points="388.45,210.9694,378.7694,209.1566,383.5852,212.1244,380.6174,216.9402,388.45,210.9694" style="stroke:#181818;stroke-width:1;"/></g><!--link Services to BaseActions--><g class="link" data-entity-1="ent0007" data-entity-2="ent0004" data-link-type="dependency" data-source-line="42" id="lnk30"><path d="M498.15,424.2894 C541.21,439.5094 595.593,458.7397 642.723,475.3997" fill="none" id="Services-to-BaseActions" style="stroke:#181818;stroke-width:1;"/><polygon fill="#181818" points="648.38,477.3994,641.2277,470.6285,643.6659,475.733,638.5614,478.1712,648.38,477.3994" style="stroke:#181818;stroke-width:1;"/></g><!--link Services to LocateActions--><g class="link" data-entity-1="ent0007" data-entity-2="ent0011" data-link-type="dependency" data-source-line="43" id="lnk31"><path d="M384.8,380.5194 C325.17,354.7294 237.2872,316.7106 182.5672,293.0506" fill="none" id="Services-to-LocateActions" style="stroke:#181818;stroke-width:1;"/><polygon fill="#181818" points="177.06,290.6694,183.7334,297.9127,181.6494,292.6537,186.9084,290.5697,177.06,290.6694" style="stroke:#181818;stroke-width:1;"/></g><!--link Services to VisionRuntime--><g class="link" data-entity-1="ent0007" data-entity-2="ent0005" data-link-type="dependency" data-source-line="44" id="lnk32"><path d="M498.15,404.6094 C541.37,404.6094 595.69,404.6094 642.9,404.6094" fill="none" id="Services-to-VisionRuntime" style="stroke:#181818;stroke-width:1;"/><polygon fill="#181818" points="648.9,404.6094,639.9,400.6094,643.9,404.6094,639.9,408.6094,648.9,404.6094" style="stroke:#181818;stroke-width:1;"/></g><!--link Resolution to Services--><g class="link" data-entity-1="ent0006" data-entity-2="ent0007" data-link-type="dependency" data-source-line="45" id="lnk33"><path d="M241.41,404.6094 C289.83,404.6094 338.83,404.6094 378.74,404.6094" fill="none" id="Resolution-to-Services" style="stroke:#181818;stroke-width:1;"/><polygon fill="#181818" points="384.74,404.6094,375.74,400.6094,379.74,404.6094,375.74,408.6094,384.74,404.6094" style="stroke:#181818;stroke-width:1;"/></g><!--link Services to GMN34--><g class="link" data-entity-1="ent0007" data-entity-2="ent0035" data-link-type="association" data-source-line="48" id="lnk36"><path d="M384.75,383.1694 C345,364.8094 294.87,334.1194 271,289.1094 C248.51,246.7094 247.09,222.7294 271,181.1094 C284.87,156.9594 308.16,139.6494 333.14,127.3094" fill="none" id="Services-GMN34" style="stroke:#181818;stroke-width:1;stroke-dasharray:7,7;"/></g><?plantuml-src RLHDRniX4BtlhnZbsZYzzr39ILGfKgDKJjLS8aMO7TiqcA4mwmzL_UyTO1qlkxx1l3UFONWC6xO8yuvfgzYGWsz1RN5FuHrcy4XjP_4BA9sWs3GMLmnC4Cnwmz2QW1bfuhjnNaacn8rgQM_S6bRAHXmWchQU73f-vgCScLALMziXnIlzhjOu9ZHz7AxwGgxWRmDdGRXQ1jf733V--EhwDMpGUWp2LH5kIsoKf2BcZ5jPp8ioV99j8VUHHtCmheYSQRNGpaG9leNEiTaMoSBxbO55YMUDAbAho94xe_4jO2JRfVIirAlELagdhlOiy86ODDbolyL7paNDEAZfkG_blDEc-JTjyergTyffR2VT_ea7dfzUGbG6-vhujFmjZpYaLf6Q_9sqOXoIgqXDliTbjvu7Dj8MVWc6vS4_lxe5SZZ-86lqCMt5Z05RqCfp5x1onBo_t7FdFGMk6d2F7bsBJXkSMgqNktanJen-LtPPibzVyWRS8ykzIOg4fxj5giqRZzOuX3yT1jE_Hx77w42IqhVKeeqf3myQ_Rb7TuAcueSUdis-VZX-73yLEOaddSgTETmND0KoV_3m0_R9tMDqtF8ndYKhWrmGdU9ZsIaZ2rTcok6XRQTexTJJHocz7Go22gWDMq7rBSx_DOCVtx1nn0XBOXd7GAip053_NZ0HU8F59z5afK34i1AF2I09vHk3LKSPZF30W0UXIcgQUzTWSwtNe5mhvAW3elmNufaON2rb_fvcHvhtwIWPH4wK6laQaCfi_WC0?></g></svg>