<?plantuml 1.2026.2?><svg xmlns="http://www.w3.org/2000/svg" xmlns:xlink="http://www.w3.org/1999/xlink" contentStyleType="text/css" data-diagram-type="DESCRIPTION" height="854px" preserveAspectRatio="none" style="width:1404px;height:854px;background:#FFFFFF;" version="1.1" viewBox="0 0 1404 854" width="1404px" zoomAndPan="magnify"><title>Automation Framework - Module: vision</title><defs/><g><g class="title" data-source-line="1"><text fill="#000000" font-family="sans-serif" font-size="14" font-weight="bold" lengthAdjust="spacing" textLength="266.793" x="561.6035" y="24.5332">Automation Framework - Module: vision</text></g><!--cluster vision--><g class="cluster" data-qualified-name="vision" data-source-line="8" id="ent0002"><rect fill="none" height="453" rx="2.5" ry="2.5" style="stroke:#181818;stroke-width:1;" width="940.5" x="443" y="190.1094"/><text fill="#000000" font-family="sans-serif" font-size="14" font-weight="bold" lengthAdjust="spacing" textLength="40.4551" x="893.0225" y="206.6426">vision</text></g><!--cluster Dependencies--><g class="cluster" data-qualified-name="Dependencies" data-source-line="18" id="ent0010"><rect fill="none" height="181" rx="2.5" ry="2.5" style="stroke:#181818;stroke-width:1;" width="240" x="1158" y="667.1094"/><text fill="#000000" font-family="sans-serif" font-size="14" font-weight="bold" lengthAdjust="spacing" textLength="94.9238" x="1230.5381" y="683.6426">Dependencies</text></g><!--cluster Primary Consumers--><g class="cluster" data-qualified-name="Primary Consumers" data-source-line="23" id="ent0013"><rect fill="none" height="254" rx="2.5" ry="2.5" style="stroke:#181818;stroke-width:1;" width="247" x="7" y="199.1094"/><text fill="#000000" font-family="sans-serif" font-size="14" font-weight="bold" lengthAdjust="spacing" textLength="133.0547" x="63.9727" y="215.6426">Primary Consumers</text></g><!--entity Contracts--><g class="entity" data-qualified-name="vision.Contracts" data-source-line="9" id="ent0003"><rect fill="#F1F1F1" height="72.8281" rx="2.5" ry="2.5" style="stroke:#181818;stroke-width:0.5;" width="179.1338" x="1188.5" y="407.6094"/><text fill="#000000" font-family="sans-serif" font-size="14" lengthAdjust="spacing" textLength="159.1338" x="1198.5" y="432.1426">interfaces.py + models.py</text><text fill="#000000" font-family="sans-serif" font-size="14" lengthAdjust="spacing" textLength="147.0615" x="1198.5" y="449.752">Detector / OCREngine /</text><text fill="#000000" font-family="sans-serif" font-size="14" lengthAdjust="spacing" textLength="157.9717" x="1198.5" y="467.3613">Matcher / Reader / nodes</text></g><!--entity Registry--><g class="entity" data-qualified-name="vision.Registry" data-source-line="10" id="ent0004"><rect fill="#F1F1F1" height="90.4375" rx="2.5" ry="2.5" style="stroke:#181818;stroke-width:0.5;" width="174.8613" x="459" y="373.1094"/><text fill="#000000" font-family="sans-serif" font-size="14" lengthAdjust="spacing" textLength="64.5723" x="469" y="397.6426">registry.py</text><text fill="#000000" font-family="sans-serif" font-size="14" lengthAdjust="spacing" textLength="140.8477" x="469" y="415.252">VisionRegistryBundle /</text><text fill="#000000" font-family="sans-serif" font-size="14" lengthAdjust="spacing" textLength="154.8613" x="469" y="432.8613">scoped plugin registries /</text><text fill="#000000" font-family="sans-serif" font-size="14" lengthAdjust="spacing" textLength="79.3994" x="469" y="450.4707">binding table</text></g><!--entity Detectors--><g class="entity" data-qualified-name="vision.Detectors" data-source-line="11" id="ent0005"><rect fill="#F1F1F1" height="37.6094" rx="2.5" ry="2.5" style="stroke:#181818;stroke-width:0.5;" width="86.9238" x="904" y="516.1094"/><text fill="#000000" font-family="sans-serif" font-size="14" lengthAdjust="spacing" textLength="66.9238" x="914" y="540.6426">detectors/*</text></g><!--entity OcrEngines--><g class="entity" data-qualified-name="vision.OcrEngines" data-source-line="12" id="ent0006"><rect fill="#F1F1F1" height="37.6094" rx="2.5" ry="2.5" style="stroke:#181818;stroke-width:0.5;" width="48.7861" x="923" y="589.1094"/><text fill="#000000" font-family="sans-serif" font-size="14" lengthAdjust="spacing" textLength="28.7861" x="933" y="613.6426">ocr/*</text></g><!--entity OpenCVAdapters--><g class="entity" data-qualified-name="vision.OpenCVAdapters" data-source-line="13" id="ent0007"><rect fill="#F1F1F1" height="72.8281" rx="2.5" ry="2.5" style="stroke:#181818;stroke-width:0.5;" width="144.4893" x="875.5" y="299.6094"/><text fill="#000000" font-family="sans-serif" font-size="14" lengthAdjust="spacing" textLength="54.4824" x="885.5" y="324.1426">opencv/*</text><text fill="#000000" font-family="sans-serif" font-size="14" lengthAdjust="spacing" textLength="124.4893" x="885.5" y="341.752">matchers / readers /</text><text fill="#000000" font-family="sans-serif" font-size="14" lengthAdjust="spacing" textLength="77.8066" x="885.5" y="359.3613">comparators</text></g><!--entity Omni--><g class="entity" data-qualified-name="vision.Omni" data-source-line="14" id="ent0008"><rect fill="#F1F1F1" height="37.6094" rx="2.5" ry="2.5" style="stroke:#181818;stroke-width:0.5;" width="59.6826" x="917.5" y="226.1094"/><text fill="#000000" font-family="sans-serif" font-size="14" lengthAdjust="spacing" textLength="39.6826" x="927.5" y="250.6426">omni/*</text></g><!--entity Pipeline--><g class="entity" data-qualified-name="vision.Pipeline" data-source-line="15" id="ent0009"><rect fill="#F1F1F1" height="72.8281" rx="2.5" ry="2.5" style="stroke:#181818;stroke-width:0.5;" width="170.9307" x="862" y="407.6094"/><text fill="#000000" font-family="sans-serif" font-size="14" lengthAdjust="spacing" textLength="57.5996" x="872" y="432.1426">pipeline/*</text><text fill="#000000" font-family="sans-serif" font-size="14" lengthAdjust="spacing" textLength="150.9307" x="872" y="449.752">core / registry / runtime /</text><text fill="#000000" font-family="sans-serif" font-size="14" lengthAdjust="spacing" textLength="124.5029" x="872" y="467.3613">stages / query / utils</text></g><!--entity Core--><g class="entity" data-qualified-name="Dependencies.Core" data-source-line="19" id="ent0011"><rect fill="#F1F1F1" height="55.2188" rx="2.5" ry="2.5" style="stroke:#181818;stroke-width:0.5;" width="118.0547" x="1219" y="703.6094"/><text fill="#000000" font-family="sans-serif" font-size="14" lengthAdjust="spacing" textLength="84.0342" x="1229" y="728.1426">core.models /</text><text fill="#000000" font-family="sans-serif" font-size="14" lengthAdjust="spacing" textLength="98.0547" x="1229" y="745.752">core.exceptions</text></g><!--entity Imaging--><g class="entity" data-qualified-name="Dependencies.Imaging" data-source-line="20" id="ent0012"><rect fill="#F1F1F1" height="37.6094" rx="2.5" ry="2.5" style="stroke:#181818;stroke-width:0.5;" width="207.5576" x="1174" y="794.1094"/><text fill="#000000" font-family="sans-serif" font-size="14" lengthAdjust="spacing" textLength="187.5576" x="1184" y="818.6426">imaging.OpenCVAdapterBase</text></g><!--entity Actions--><g class="entity" data-qualified-name="Primary Consumers.Actions" data-source-line="24" id="ent0014"><rect fill="#F1F1F1" height="55.2188" rx="2.5" ry="2.5" style="stroke:#181818;stroke-width:0.5;" width="166.2891" x="47.5" y="308.6094"/><text fill="#000000" font-family="sans-serif" font-size="14" lengthAdjust="spacing" textLength="146.2891" x="57.5" y="333.1426">actions.vision_runtime /</text><text fill="#000000" font-family="sans-serif" font-size="14" lengthAdjust="spacing" textLength="108.9648" x="57.5" y="350.752">actions.advanced</text></g><!--entity RunnerChecks--><g class="entity" data-qualified-name="Primary Consumers.RunnerChecks" data-source-line="25" id="ent0015"><rect fill="#F1F1F1" height="37.6094" rx="2.5" ry="2.5" style="stroke:#181818;stroke-width:0.5;" width="122.7168" x="69" y="235.1094"/><text fill="#000000" font-family="sans-serif" font-size="14" lengthAdjust="spacing" textLength="102.7168" x="79" y="259.6426">runner.checks.ui</text></g><!--entity ProfileResolver--><g class="entity" data-qualified-name="Primary Consumers.ProfileResolver" data-source-line="26" id="ent0016"><rect fill="#F1F1F1" height="37.6094" rx="2.5" ry="2.5" style="stroke:#181818;stroke-width:0.5;" width="214.5371" x="23" y="399.1094"/><text fill="#000000" font-family="sans-serif" font-size="14" lengthAdjust="spacing" textLength="194.5371" x="33" y="423.6426">runner.runtime_profile_resolver</text></g><g class="entity" data-qualified-name="GMN36" data-source-line="50" id="ent0037"><path d="M784,44.6094 L784,120.0156 L1110.646,120.0156 L1110.646,54.6094 L1100.646,44.6094 L784,44.6094" fill="#FEFFDD" style="stroke:#181818;stroke-width:0.5;"/><path d="M1100.646,44.6094 L1100.646,54.6094 L1110.646,54.6094 L1100.646,44.6094" fill="#FEFFDD" style="stroke:#181818;stroke-width:1;"/><text fill="#000000" font-family="sans-serif" font-size="13" lengthAdjust="spacing" textLength="301.355" x="790" y="63.1045">The pipeline submodule turns configured stages into</text><text fill="#000000" font-family="sans-serif" font-size="13" lengthAdjust="spacing" textLength="305.646" x="790" y="79.4561">a reusable detection and OCR workflow. The runtime</text><text fill="#000000" font-family="sans-serif" font-size="13" lengthAdjust="spacing" textLength="269.5215" x="790" y="95.8076">now resolves registry-bundle factories together</text><text fill="#000000" font-family="sans-serif" font-size="13" lengthAdjust="spacing" textLength="213.186" x="790" y="112.1592">before coercing stage configurations.</text></g><!--link Registry to Detectors--><g class="link" data-entity-1="ent0004" data-entity-2="ent0005" data-link-type="dependency" data-source-line="29" id="lnk17"><path d="M634.16,449.7994 C678.62,465.4494 733.84,483.9594 784,498.1094 C824.24,509.4594 864.9452,518.5699 897.8952,525.4099" fill="none" id="Registry-to-Detectors" style="stroke:#181818;stroke-width:1;"/><polygon fill="#181818" points="903.77,526.6294,895.7709,520.8836,898.8744,525.6131,894.1448,528.7166,903.77,526.6294" style="stroke:#181818;stroke-width:1;"/></g><!--link Registry to OcrEngines--><g class="link" data-entity-1="ent0004" data-entity-2="ent0006" data-link-type="dependency" data-source-line="30" id="lnk18"><path d="M603.9,463.2594 C649.82,497.7994 717.69,543.9894 784,571.1094 C831.27,590.4394 884.6577,599.8694 916.9477,604.3794" fill="none" id="Registry-to-OcrEngines" style="stroke:#181818;stroke-width:1;"/><polygon fill="#181818" points="922.89,605.2094,914.5298,600.0029,917.9381,604.5177,913.4232,607.926,922.89,605.2094" style="stroke:#181818;stroke-width:1;"/></g><!--link Registry to OpenCVAdapters--><g class="link" data-entity-1="ent0004" data-entity-2="ent0007" data-link-type="dependency" data-source-line="31" id="lnk19"><path d="M634.08,400.3194 C706.27,385.4794 802.0129,365.8077 869.5229,351.9277" fill="none" id="Registry-to-OpenCVAdapters" style="stroke:#181818;stroke-width:1;"/><polygon fill="#181818" points="875.4,350.7194,865.7788,348.6138,870.5024,351.7263,867.3899,356.4499,875.4,350.7194" style="stroke:#181818;stroke-width:1;"/></g><!--link Registry to Omni--><g class="link" data-entity-1="ent0004" data-entity-2="ent0008" data-link-type="dependency" data-source-line="32" id="lnk20"><path d="M613.37,373.0794 C659.39,343.4394 723.24,305.8794 784,282.1094 C828.86,264.5594 878.1801,255.1037 911.3201,249.9937" fill="none" id="Registry-to-Omni" style="stroke:#181818;stroke-width:1;"/><polygon fill="#181818" points="917.25,249.0794,907.7455,246.4976,912.3084,249.8413,908.9647,254.4042,917.25,249.0794" style="stroke:#181818;stroke-width:1;"/></g><!--link Registry to Pipeline--><g class="link" data-entity-1="ent0004" data-entity-2="ent0009" data-link-type="dependency" data-source-line="33" id="lnk21"><path d="M634.08,423.7494 C701.58,428.1494 788.8027,433.8289 855.8127,438.1989" fill="none" id="Registry-to-Pipeline" style="stroke:#181818;stroke-width:1;"/><polygon fill="#181818" points="861.8,438.5894,853.0794,434.0122,856.8106,438.264,852.5588,441.9952,861.8,438.5894" style="stroke:#181818;stroke-width:1;"/></g><!--link Detectors to Contracts--><g class="link" data-entity-1="ent0005" data-entity-2="ent0003" data-link-type="dependency" data-source-line="34" id="lnk22"><path d="M991.12,533.6394 C1025.95,530.6094 1075.11,521.9994 1111,498.1094 C1130.1,485.3994 1121.08,467.4894 1141,456.1094 C1155.3,447.9294 1165.9217,444.1675 1182.4617,441.7775" fill="none" id="Detectors-to-Contracts" style="stroke:#181818;stroke-width:1;"/><polygon fill="#181818" points="1188.4,440.9194,1178.9205,438.2476,1183.4514,441.6344,1180.0646,446.1654,1188.4,440.9194" style="stroke:#181818;stroke-width:1;"/></g><!--link Detectors to Core--><g class="link" data-entity-1="ent0005" data-entity-2="ent0011" data-link-type="dependency" data-source-line="35" id="lnk23"><path d="M991.21,535.0894 C1026.55,537.1394 1076.4,545.0094 1111,571.1094 C1140.06,593.0194 1125.71,616.0094 1150,643.1094 C1171.57,667.1794 1195.8561,684.9513 1220.9361,700.3413" fill="none" id="Detectors-to-Core" style="stroke:#181818;stroke-width:1;"/><polygon fill="#181818" points="1226.05,703.4794,1220.4712,695.3629,1221.7884,700.8643,1216.287,702.1815,1226.05,703.4794" style="stroke:#181818;stroke-width:1;"/></g><!--link Detectors to Imaging--><g class="link" data-entity-1="ent0005" data-entity-2="ent0012" data-link-type="dependency" data-source-line="36" id="lnk24"><path d="M991.3,532.4994 C1028.18,532.7194 1080.21,539.3794 1111,571.1094 C1119.07,579.4294 1142.2,767.5294 1150,776.1094 C1156.8,783.5894 1159.7262,786.7465 1168.6662,791.5565" fill="none" id="Detectors-to-Imaging" style="stroke:#181818;stroke-width:1;"/><polygon fill="#181818" points="1173.95,794.3994,1167.9196,786.6126,1169.5469,792.0303,1164.1291,793.6576,1173.95,794.3994" style="stroke:#181818;stroke-width:1;"/></g><!--link OcrEngines to Contracts--><g class="link" data-entity-1="ent0006" data-entity-2="ent0003" data-link-type="dependency" data-source-line="37" id="lnk25"><path d="M972.13,605.9294 C1004.7,602.2194 1064.63,592.8494 1111,571.1094 C1159.62,548.3094 1203.0631,513.4575 1234.8131,484.6975" fill="none" id="OcrEngines-to-Contracts" style="stroke:#181818;stroke-width:1;"/><polygon fill="#181818" points="1239.26,480.6694,1229.9043,483.7469,1235.5543,484.0261,1235.2751,489.6761,1239.26,480.6694" style="stroke:#181818;stroke-width:1;"/></g><!--link OcrEngines to Core--><g class="link" data-entity-1="ent0006" data-entity-2="ent0011" data-link-type="dependency" data-source-line="38" id="lnk26"><path d="M972.12,616.9594 C1023.32,636.1194 1140.1511,679.8651 1213.3411,707.2751" fill="none" id="OcrEngines-to-Core" style="stroke:#181818;stroke-width:1;"/><polygon fill="#181818" points="1218.96,709.3794,1211.9345,702.477,1214.2776,707.6258,1209.1288,709.9689,1218.96,709.3794" style="stroke:#181818;stroke-width:1;"/></g><!--link OcrEngines to Imaging--><g class="link" data-entity-1="ent0006" data-entity-2="ent0012" data-link-type="dependency" data-source-line="39" id="lnk27"><path d="M966.02,627.1994 C998.84,661.8294 1073.21,735.2294 1150,776.1094 C1163.48,783.2894 1172.8273,787.3642 1187.7173,792.2342" fill="none" id="OcrEngines-to-Imaging" style="stroke:#181818;stroke-width:1;"/><polygon fill="#181818" points="1193.42,794.0994,1186.1093,787.4998,1188.6677,792.5451,1183.6225,795.1034,1193.42,794.0994" style="stroke:#181818;stroke-width:1;"/></g><!--link OpenCVAdapters to Contracts--><g class="link" data-entity-1="ent0007" data-entity-2="ent0003" data-link-type="dependency" data-source-line="40" id="lnk28"><path d="M1019.78,359.5394 C1069.22,375.7994 1129.7203,395.685 1182.5703,413.065" fill="none" id="OpenCVAdapters-to-Contracts" style="stroke:#181818;stroke-width:1;"/><polygon fill="#181818" points="1188.27,414.9394,1180.97,408.328,1183.5202,413.3774,1178.4708,415.9276,1188.27,414.9394" style="stroke:#181818;stroke-width:1;"/></g><!--link OpenCVAdapters to Core--><g class="link" data-entity-1="ent0007" data-entity-2="ent0011" data-link-type="dependency" data-source-line="41" id="lnk29"><path d="M1019.51,344.2794 C1051.47,351.4494 1087.25,364.8994 1111,390.1094 C1147.59,428.9494 1133.51,453.4194 1142,506.1094 C1146.85,536.2194 1135.07,616.5194 1150,643.1094 C1165.36,670.4794 1187.9795,688.2696 1213.6895,702.7196" fill="none" id="OpenCVAdapters-to-Core" style="stroke:#181818;stroke-width:1;"/><polygon fill="#181818" points="1218.92,705.6594,1213.0341,697.7628,1214.5613,703.2096,1209.1145,704.7368,1218.92,705.6594" style="stroke:#181818;stroke-width:1;"/></g><!--link OpenCVAdapters to Imaging--><g class="link" data-entity-1="ent0007" data-entity-2="ent0012" data-link-type="dependency" data-source-line="42" id="lnk30"><path d="M1019.72,342.3094 C1052.52,348.9994 1088.98,362.6094 1111,390.1094 C1117.74,398.5194 1143.11,767.8294 1150,776.1094 C1156.61,784.0494 1159.5647,787.4543 1168.6047,792.4343" fill="none" id="OpenCVAdapters-to-Imaging" style="stroke:#181818;stroke-width:1;"/><polygon fill="#181818" points="1173.86,795.3294,1167.9071,787.4832,1169.4806,792.9168,1164.0469,794.4903,1173.86,795.3294" style="stroke:#181818;stroke-width:1;"/></g><!--link Pipeline to Contracts--><g class="link" data-entity-1="ent0009" data-entity-2="ent0003" data-link-type="dependency" data-source-line="43" id="lnk31"><path d="M1033.1,444.1094 C1080.72,444.1094 1134.12,444.1094 1182.39,444.1094" fill="none" id="Pipeline-to-Contracts" style="stroke:#181818;stroke-width:1;"/><polygon fill="#181818" points="1188.39,444.1094,1179.39,440.1094,1183.39,444.1094,1179.39,448.1094,1188.39,444.1094" style="stroke:#181818;stroke-width:1;"/></g><!--link Pipeline to Core--><g class="link" data-entity-1="ent0009" data-entity-2="ent0011" data-link-type="dependency" data-source-line="44" id="lnk32"><path d="M1033.06,455.9294 C1061.12,463.7294 1090.42,476.6594 1111,498.1094 C1145.57,534.1394 1129.83,557.6794 1142,606.1094 C1146.1,622.4294 1140.66,629.1194 1150,643.1094 C1167.06,668.6494 1189.0884,685.9072 1213.9584,700.5372" fill="none" id="Pipeline-to-Core" style="stroke:#181818;stroke-width:1;"/><polygon fill="#181818" points="1219.13,703.5794,1213.4008,695.5684,1214.8204,701.0442,1209.3445,702.4638,1219.13,703.5794" style="stroke:#181818;stroke-width:1;"/></g><!--link Actions to Registry--><g class="link" data-entity-1="ent0014" data-entity-2="ent0004" data-link-type="dependency" data-source-line="45" id="lnk33"><path d="M213.78,351.0494 C273.13,361.9794 355.12,377.4194 427,392.1094 C437.32,394.2194 442.2637,395.2396 452.9737,397.5396" fill="none" id="Actions-to-Registry" style="stroke:#181818;stroke-width:1;"/><polygon fill="#181818" points="458.84,398.7994,450.8805,392.9989,453.9515,397.7495,449.2008,400.8205,458.84,398.7994" style="stroke:#181818;stroke-width:1;"/><text fill="#000000" font-family="sans-serif" font-size="13" lengthAdjust="spacing" textLength="126.439" x="285.5" y="359.6045">create detector / OCR</text></g><!--link RunnerChecks to Contracts--><g class="link" data-entity-1="ent0015" data-entity-2="ent0003" data-link-type="dependency" data-source-line="46" id="lnk34"><path d="M192.16,243.4694 C380.2,211.6794 950.28,124.6594 1111,208.1094 C1192.13,250.2394 1239.7321,346.6643 1261.6521,401.7643" fill="none" id="RunnerChecks-to-Contracts" style="stroke:#181818;stroke-width:1;"/><polygon fill="#181818" points="1263.87,407.3394,1264.2599,397.4982,1262.0218,402.6935,1256.8265,400.4554,1263.87,407.3394" style="stroke:#181818;stroke-width:1;"/><text fill="#000000" font-family="sans-serif" font-size="13" lengthAdjust="spacing" textLength="88.1689" x="665" y="173.6045">ReaderAdapter</text></g><!--link ProfileResolver to Registry--><g class="link" data-entity-1="ent0016" data-entity-2="ent0004" data-link-type="dependency" data-source-line="47" id="lnk35"><path d="M238.12,418.1094 C306.64,418.1094 388.52,418.1094 452.75,418.1094" fill="none" id="ProfileResolver-to-Registry" style="stroke:#181818;stroke-width:1;"/><polygon fill="#181818" points="458.75,418.1094,449.75,414.1094,453.75,418.1094,449.75,422.1094,458.75,418.1094" style="stroke:#181818;stroke-width:1;"/><text fill="#000000" font-family="sans-serif" font-size="13" lengthAdjust="spacing" textLength="155.3652" x="271" y="414.6045">bind plugin-aware factories</text></g><!--link Pipeline to GMN36--><g class="link" data-entity-1="ent0009" data-entity-2="ent0037" data-link-type="association" data-source-line="50" id="lnk38"><path d="M861.96,442.7294 C808.74,436.8794 743.97,419.5994 709,372.6094 C670.53,320.9094 677.46,283.8094 709,227.6094 C737.07,177.5994 790.1,142.7394 839.04,119.7094" fill="none" id="Pipeline-GMN36" style="stroke:#181818;stroke-width:1;stroke-dasharray:7,7;"/></g><?plantuml-src RLLDRzim3BtxLn0vTeXpxs50csx03aMBREYfGA58j2D4bZnz92k6_VTH7tPYjJVxaNny52dAIwyGxe8t0_FIQFXksO1dOu-mXaSZWi9RE4b7fgPHs7dm1gpi3nw4jCXZJEEEKe-C0i4Tc31dgNlec79uPU5c68r6xN_wTyeOGvdkrRNBoFYHzLWxD0M7LTQnWhyDNFXW9RL7sp6EhXtVuGiCHg2Atw_w0Jtn60iRUDhklkbUQeJDgtvadXymmZja8dreYd8hO0wsHdlBk7VBD1PxwRnzJyGlISgkGFT12vM87JSZ2XXLe5HGGYIwQDjBBUBHUBPNc39DySj4eeXscvlaDHLHwJ7S5eSdRdDfjSU8cfysDwzwoFMI3D8K2qw2eYkTVAJEFEI_VRaJRAG3hRa6BQTqzBaqZd94HVbZAcuifZIvjFWPj9T3FXvFZOmgVWTCjk2boicV2qVpxwhZ3qYI15KXOs-gliTCRMvsheP-yG_7CGxbr4gBrR0CZ4wgRnUrtZEN6_8ZMnSQdYt5a5WQ2nS6j1-5i7GDN9ldy-sgtid2n8bfZY8bkSjWDLr1QxGjTOaVNHjadey4RXFsgNj9zJPQqqc5RnQTKIUq-KGpk2jOB6eQE5YllrxDrGA-cgOblfoEfIsEn0APspbdIV3bRjMuhLsdNbpqL0mV34HHOJF7GdlDyvanSdt49xwfkegfWecZz3e1y_dS0gTRw174OZqrr-rUCbD8NbH5JLFrjkQFgwOieJKxCxgHj1yf4LsZfj66Kk-DfvqFfhjq2k3N0M6wo-32VaWF0FXWgGHkT2VxO6czbMjCYzTG5AFB7bnSQgMW-8um4a0rGNnAEcNERI8lyqf1sfoXJAkRbyLwdnVfB9PUcnuzRIwAs6CNLmitQ7bSeqd4h8hbYzRGke1OOFCV?></g></svg>