<?plantuml 1.2026.2?><svg xmlns="http://www.w3.org/2000/svg" xmlns:xlink="http://www.w3.org/1999/xlink" contentStyleType="text/css" data-diagram-type="DESCRIPTION" height="1142px" preserveAspectRatio="none" style="width:1335px;height:1142px;background:#FFFFFF;" version="1.1" viewBox="0 0 1335 1142" width="1335px" zoomAndPan="magnify"><title>Automation Framework - Module: runner</title><defs/><g><g class="title" data-source-line="1"><text fill="#000000" font-family="sans-serif" font-size="14" font-weight="bold" lengthAdjust="spacing" textLength="270.6758" x="525.1621" y="24.5332">Automation Framework - Module: runner</text></g><!--cluster runner--><g class="cluster" data-qualified-name="runner" data-source-line="8" id="ent0002"><rect fill="none" height="412" rx="2.5" ry="2.5" style="stroke:#181818;stroke-width:1;" width="1322" x="7" y="152.6094"/><text fill="#000000" font-family="sans-serif" font-size="14" font-weight="bold" lengthAdjust="spacing" textLength="44.3379" x="645.8311" y="169.1426">runner</text></g><!--cluster External Modules--><g class="cluster" data-qualified-name="External Modules" data-source-line="21" id="ent0013"><rect fill="none" height="455" rx="2.5" ry="2.5" style="stroke:#181818;stroke-width:1;" width="131" x="1171.5" y="588.6094"/><text fill="#000000" font-family="sans-serif" font-size="14" font-weight="bold" lengthAdjust="spacing" textLength="115.917" x="1179.0415" y="605.1426">External Modules</text></g><!--entity Executor--><g class="entity" data-qualified-name="runner.Executor" data-source-line="9" id="ent0003"><rect fill="#F1F1F1" height="55.2188" rx="2.5" ry="2.5" style="stroke:#181818;stroke-width:0.5;" width="102.4756" x="66.5" y="341.1094"/><text fill="#000000" font-family="sans-serif" font-size="14" lengthAdjust="spacing" textLength="72.3721" x="76.5" y="365.6426">executor.py</text><text fill="#000000" font-family="sans-serif" font-size="14" lengthAdjust="spacing" textLength="82.4756" x="76.5" y="383.252">TestExecutor</text></g><!--entity ProfileResolver--><g class="entity" data-qualified-name="runner.ProfileResolver" data-source-line="10" id="ent0004"><rect fill="#F1F1F1" height="55.2188" rx="2.5" ry="2.5" style="stroke:#181818;stroke-width:0.5;" width="188.8545" x="23" y="493.1094"/><text fill="#000000" font-family="sans-serif" font-size="14" lengthAdjust="spacing" textLength="168.8545" x="33" y="517.6426">runtime_profile_resolver.py</text><text fill="#000000" font-family="sans-serif" font-size="14" lengthAdjust="spacing" textLength="147.0547" x="33" y="535.252">RuntimeProfileResolver</text></g><!--entity RuntimeFacade--><g class="entity" data-qualified-name="runner.RuntimeFacade" data-source-line="11" id="ent0005"><rect fill="#F1F1F1" height="55.2188" rx="2.5" ry="2.5" style="stroke:#181818;stroke-width:0.5;" width="161.6338" x="302.5" y="341.1094"/><text fill="#000000" font-family="sans-serif" font-size="14" lengthAdjust="spacing" textLength="65.3584" x="312.5" y="365.6426">runtime.py</text><text fill="#000000" font-family="sans-serif" font-size="14" lengthAdjust="spacing" textLength="141.6338" x="312.5" y="383.252">RuntimeBuilder facade</text></g><!--entity Compile--><g class="entity" data-qualified-name="runner.Compile" data-source-line="12" id="ent0006"><rect fill="#F1F1F1" height="72.8281" rx="2.5" ry="2.5" style="stroke:#181818;stroke-width:0.5;" width="167.0684" x="634" y="332.1094"/><text fill="#000000" font-family="sans-serif" font-size="14" lengthAdjust="spacing" textLength="121.3857" x="644" y="356.6426">runtime_compile.py</text><text fill="#000000" font-family="sans-serif" font-size="14" lengthAdjust="spacing" textLength="147.0684" x="644" y="374.252">ScenarioPlanCompiler /</text><text fill="#000000" font-family="sans-serif" font-size="14" lengthAdjust="spacing" textLength="84.8135" x="644" y="391.8613">StepCompiler</text></g><!--entity StepSpecs--><g class="entity" data-qualified-name="runner.StepSpecs" data-source-line="13" id="ent0007"><rect fill="#F1F1F1" height="55.2188" rx="2.5" ry="2.5" style="stroke:#181818;stroke-width:0.5;" width="121.9307" x="959" y="297.1094"/><text fill="#000000" font-family="sans-serif" font-size="14" lengthAdjust="spacing" textLength="101.5615" x="969" y="321.6426">step_specs.py +</text><text fill="#000000" font-family="sans-serif" font-size="14" lengthAdjust="spacing" textLength="101.9307" x="969" y="339.252">spec_registry.py</text></g><!--entity Assembly--><g class="entity" data-qualified-name="runner.Assembly" data-source-line="14" id="ent0008"><rect fill="#F1F1F1" height="108.0469" rx="2.5" ry="2.5" style="stroke:#181818;stroke-width:0.5;" width="186.5029" x="624" y="440.6094"/><text fill="#000000" font-family="sans-serif" font-size="14" lengthAdjust="spacing" textLength="132.2754" x="634" y="465.1426">runtime_assembly.py</text><text fill="#000000" font-family="sans-serif" font-size="14" lengthAdjust="spacing" textLength="161.8271" x="634" y="482.752">RuntimeFactoryResolver /</text><text fill="#000000" font-family="sans-serif" font-size="14" lengthAdjust="spacing" textLength="166.5029" x="634" y="500.3613">RuntimeResourceFactory /</text><text fill="#000000" font-family="sans-serif" font-size="14" lengthAdjust="spacing" textLength="153.2686" x="634" y="517.9707">RuntimeServiceFactory /</text><text fill="#000000" font-family="sans-serif" font-size="14" lengthAdjust="spacing" textLength="147.0547" x="634" y="535.5801">RuntimeContextFactory</text></g><!--entity Execution--><g class="entity" data-qualified-name="runner.Execution" data-source-line="15" id="ent0009"><rect fill="#F1F1F1" height="108.0469" rx="2.5" ry="2.5" style="stroke:#181818;stroke-width:0.5;" width="153.0752" x="641" y="188.6094"/><text fill="#000000" font-family="sans-serif" font-size="14" lengthAdjust="spacing" textLength="133.0752" x="651" y="213.1426">runtime_execution.py</text><text fill="#000000" font-family="sans-serif" font-size="14" lengthAdjust="spacing" textLength="108.9512" x="651" y="230.752">ScenarioRunner /</text><text fill="#000000" font-family="sans-serif" font-size="14" lengthAdjust="spacing" textLength="112.8477" x="651" y="248.3613">ScenarioPipeline /</text><text fill="#000000" font-family="sans-serif" font-size="14" lengthAdjust="spacing" textLength="90.2822" x="651" y="265.9707">StageRunner /</text><text fill="#000000" font-family="sans-serif" font-size="14" lengthAdjust="spacing" textLength="84.0479" x="651" y="283.5801">StepExecutor</text></g><!--entity RuntimeContracts--><g class="entity" data-qualified-name="runner.RuntimeContracts" data-source-line="16" id="ent0010"><rect fill="#F1F1F1" height="72.8281" rx="2.5" ry="2.5" style="stroke:#181818;stroke-width:0.5;" width="150.3408" x="945" y="189.1094"/><text fill="#000000" font-family="sans-serif" font-size="14" lengthAdjust="spacing" textLength="130.3408" x="955" y="213.6426">runtime_models.py +</text><text fill="#000000" font-family="sans-serif" font-size="14" lengthAdjust="spacing" textLength="126.458" x="955" y="231.252">runtime_events.py +</text><text fill="#000000" font-family="sans-serif" font-size="14" lengthAdjust="spacing" textLength="119.834" x="955" y="248.8613">runtime_policies.py</text></g><!--entity Dispatchers--><g class="entity" data-qualified-name="runner.Dispatchers" data-source-line="17" id="ent0011"><rect fill="#F1F1F1" height="55.2188" rx="2.5" ry="2.5" style="stroke:#181818;stroke-width:0.5;" width="160.4785" x="940" y="387.1094"/><text fill="#000000" font-family="sans-serif" font-size="14" lengthAdjust="spacing" textLength="140.4785" x="950" y="411.6426">action_dispatcher.py +</text><text fill="#000000" font-family="sans-serif" font-size="14" lengthAdjust="spacing" textLength="127.627" x="950" y="429.252">check_dispatcher.py</text></g><!--entity RuntimeRegistry--><g class="entity" data-qualified-name="runner.RuntimeRegistry" data-source-line="18" id="ent0012"><rect fill="#F1F1F1" height="37.6094" rx="2.5" ry="2.5" style="stroke:#181818;stroke-width:0.5;" width="153.4375" x="1160" y="395.6094"/><text fill="#000000" font-family="sans-serif" font-size="14" lengthAdjust="spacing" textLength="133.4375" x="1170" y="420.1426">registry.py + checks/*</text></g><!--entity Core--><g class="entity" data-qualified-name="External Modules.Core" data-source-line="22" id="ent0014"><rect fill="#F1F1F1" height="37.6094" rx="2.5" ry="2.5" style="stroke:#181818;stroke-width:0.5;" width="47.2344" x="1213" y="624.6094"/><text fill="#000000" font-family="sans-serif" font-size="14" lengthAdjust="spacing" textLength="27.2344" x="1223" y="649.1426">core</text></g><!--entity Actions--><g class="entity" data-qualified-name="External Modules.Actions" data-source-line="23" id="ent0015"><rect fill="#F1F1F1" height="37.6094" rx="2.5" ry="2.5" style="stroke:#181818;stroke-width:0.5;" width="64.3584" x="1204.5" y="770.6094"/><text fill="#000000" font-family="sans-serif" font-size="14" lengthAdjust="spacing" textLength="44.3584" x="1214.5" y="795.1426">actions</text></g><!--entity Capture--><g class="entity" data-qualified-name="External Modules.Capture" data-source-line="24" id="ent0016"><rect fill="#F1F1F1" height="37.6094" rx="2.5" ry="2.5" style="stroke:#181818;stroke-width:0.5;" width="66.6963" x="1203" y="989.6094"/><text fill="#000000" font-family="sans-serif" font-size="14" lengthAdjust="spacing" textLength="46.6963" x="1213" y="1014.1426">capture</text></g><!--entity Emulator--><g class="entity" data-qualified-name="External Modules.Emulator" data-source-line="25" id="ent0017"><rect fill="#F1F1F1" height="37.6094" rx="2.5" ry="2.5" style="stroke:#181818;stroke-width:0.5;" width="74.4688" x="1199.5" y="916.6094"/><text fill="#000000" font-family="sans-serif" font-size="14" lengthAdjust="spacing" textLength="54.4688" x="1209.5" y="941.1426">emulator</text></g><!--entity Logs--><g class="entity" data-qualified-name="External Modules.Logs" data-source-line="26" id="ent0018"><rect fill="#F1F1F1" height="37.6094" rx="2.5" ry="2.5" style="stroke:#181818;stroke-width:0.5;" width="45.6826" x="1213.5" y="843.6094"/><text fill="#000000" font-family="sans-serif" font-size="14" lengthAdjust="spacing" textLength="25.6826" x="1223.5" y="868.1426">logs</text></g><!--entity Vision--><g class="entity" data-qualified-name="External Modules.Vision" data-source-line="27" id="ent0019"><rect fill="#F1F1F1" height="37.6094" rx="2.5" ry="2.5" style="stroke:#181818;stroke-width:0.5;" width="55.793" x="1208.5" y="697.6094"/><text fill="#000000" font-family="sans-serif" font-size="14" lengthAdjust="spacing" textLength="35.793" x="1218.5" y="722.1426">vision</text></g><g class="entity" data-qualified-name="GMN43" data-source-line="55" id="ent0044"><path d="M272,44.6094 L272,136.3672 A0,0 0 0 0 272,136.3672 L379.5,136.3672 L383.5,340.9194 L387.5,136.3672 L494.6143,136.3672 A0,0 0 0 0 494.6143,136.3672 L494.6143,54.6094 L484.6143,44.6094 L272,44.6094 A0,0 0 0 0 272,44.6094" fill="#FEFFDD" style="stroke:#181818;stroke-width:0.5;"/><path d="M484.6143,44.6094 L484.6143,54.6094 L494.6143,54.6094 L484.6143,44.6094" fill="#FEFFDD" style="stroke:#181818;stroke-width:0.5;"/><text fill="#000000" font-family="sans-serif" font-size="13" lengthAdjust="spacing" textLength="201.6143" x="278" y="63.1045">The runner module now separates:</text><text fill="#000000" font-family="sans-serif" font-size="13" lengthAdjust="spacing" textLength="103.3271" x="278" y="79.4561">- profile resolution</text><text fill="#000000" font-family="sans-serif" font-size="13" lengthAdjust="spacing" textLength="101.8862" x="278" y="95.8076">- plan compilation</text><text fill="#000000" font-family="sans-serif" font-size="13" lengthAdjust="spacing" textLength="109.8081" x="278" y="112.1592">- runtime assembly</text><text fill="#000000" font-family="sans-serif" font-size="13" lengthAdjust="spacing" textLength="178.5088" x="278" y="128.5107">- execution and policy handling</text></g><g class="entity" data-qualified-name="GMN46" data-source-line="63" id="ent0047"><path d="M555,77.1094 L555,136.1641 A0,0 0 0 0 555,136.1641 L713.5,136.1641 L717.5,188.4194 L721.5,136.1641 L879.5005,136.1641 A0,0 0 0 0 879.5005,136.1641 L879.5005,87.1094 L869.5005,77.1094 L555,77.1094 A0,0 0 0 0 555,77.1094" fill="#FEFFDD" style="stroke:#181818;stroke-width:0.5;"/><path d="M869.5005,77.1094 L869.5005,87.1094 L879.5005,87.1094 L869.5005,77.1094" fill="#FEFFDD" style="stroke:#181818;stroke-width:0.5;"/><text fill="#000000" font-family="sans-serif" font-size="13" lengthAdjust="spacing" textLength="266.6714" x="561" y="95.6045">Step execution is staged through setup, steps,</text><text fill="#000000" font-family="sans-serif" font-size="13" lengthAdjust="spacing" textLength="257.9688" x="561" y="111.9561">verification, and teardown. Retry, failure, and</text><text fill="#000000" font-family="sans-serif" font-size="13" lengthAdjust="spacing" textLength="303.5005" x="561" y="128.3076">hook events are normalized in shared policy helpers.</text></g><!--link Executor to RuntimeFacade--><g class="link" data-entity-1="ent0003" data-entity-2="ent0005" data-link-type="dependency" data-source-line="30" id="lnk20"><path d="M168.78,368.6094 C206.48,368.6094 252.84,368.6094 296.3,368.6094" fill="none" id="Executor-to-RuntimeFacade" style="stroke:#181818;stroke-width:1;"/><polygon fill="#181818" points="302.3,368.6094,293.3,364.6094,297.3,368.6094,293.3,372.6094,302.3,368.6094" style="stroke:#181818;stroke-width:1;"/></g><!--link ProfileResolver to Emulator--><g class="link" data-entity-1="ent0004" data-entity-2="ent0017" data-link-type="dependency" data-source-line="31" id="lnk21"><path d="M127.7,548.2894 C146.38,600.1494 193.74,712.0794 272,771.6094 C567.75,996.5994 1056.6418,957.3768 1193.5118,941.1268" fill="none" id="ProfileResolver-to-Emulator" style="stroke:#181818;stroke-width:1;"/><polygon fill="#181818" points="1199.47,940.4194,1190.0612,937.5084,1194.5049,941.0089,1191.0044,945.4526,1199.47,940.4194" style="stroke:#181818;stroke-width:1;"/></g><!--link ProfileResolver to Capture--><g class="link" data-entity-1="ent0004" data-entity-2="ent0016" data-link-type="dependency" data-source-line="32" id="lnk22"><path d="M121.38,548.2794 C130.14,617.7394 162.93,800.5394 272,893.6094 C555.52,1135.5494 1062.7855,1046.4574 1196.8655,1017.4674" fill="none" id="ProfileResolver-to-Capture" style="stroke:#181818;stroke-width:1;"/><polygon fill="#181818" points="1202.73,1016.1994,1193.0879,1014.1917,1197.8429,1017.256,1194.7786,1022.011,1202.73,1016.1994" style="stroke:#181818;stroke-width:1;"/></g><!--link ProfileResolver to Logs--><g class="link" data-entity-1="ent0004" data-entity-2="ent0018" data-link-type="dependency" data-source-line="33" id="lnk23"><path d="M139.89,548.2694 C167.09,581.5794 217.16,636.9894 272,668.6094 C606.82,861.6394 1097.4008,865.0575 1207.4008,863.2575" fill="none" id="ProfileResolver-to-Logs" style="stroke:#181818;stroke-width:1;"/><polygon fill="#181818" points="1213.4,863.1594,1204.3358,859.3072,1208.4007,863.2412,1204.4667,867.3061,1213.4,863.1594" style="stroke:#181818;stroke-width:1;"/></g><!--link ProfileResolver to Vision--><g class="link" data-entity-1="ent0004" data-entity-2="ent0019" data-link-type="dependency" data-source-line="34" id="lnk24"><path d="M212.29,537.0694 C450.71,578.8994 1064.9203,686.6722 1202.3503,710.7922" fill="none" id="ProfileResolver-to-Vision" style="stroke:#181818;stroke-width:1;"/><polygon fill="#181818" points="1208.26,711.8294,1200.087,706.3338,1203.3353,710.965,1198.704,714.2134,1208.26,711.8294" style="stroke:#181818;stroke-width:1;"/></g><!--link ProfileResolver to Actions--><g class="link" data-entity-1="ent0004" data-entity-2="ent0015" data-link-type="dependency" data-source-line="35" id="lnk25"><path d="M168.84,548.2494 C198.26,563.5394 236.47,581.9394 272,594.6094 C625.25,720.5694 1076.0316,773.3548 1198.2916,785.9448" fill="none" id="ProfileResolver-to-Actions" style="stroke:#181818;stroke-width:1;"/><polygon fill="#181818" points="1204.26,786.5594,1195.7171,781.6585,1199.2863,786.0472,1194.8976,789.6164,1204.26,786.5594" style="stroke:#181818;stroke-width:1;"/></g><!--link RuntimeFacade to Compile--><g class="link" data-entity-1="ent0005" data-entity-2="ent0006" data-link-type="dependency" data-source-line="36" id="lnk26"><path d="M464.87,368.6094 C516.11,368.6094 576.34,368.6094 627.99,368.6094" fill="none" id="RuntimeFacade-to-Compile" style="stroke:#181818;stroke-width:1;"/><polygon fill="#181818" points="633.99,368.6094,624.99,364.6094,628.99,368.6094,624.99,372.6094,633.99,368.6094" style="stroke:#181818;stroke-width:1;"/></g><!--link Compile to StepSpecs--><g class="link" data-entity-1="ent0006" data-entity-2="ent0007" data-link-type="dependency" data-source-line="37" id="lnk27"><path d="M801.01,356.5294 C850.88,349.2294 907.3933,340.9488 952.6633,334.3188" fill="none" id="Compile-to-StepSpecs" style="stroke:#181818;stroke-width:1;"/><polygon fill="#181818" points="958.6,333.4494,949.1154,330.7958,953.6528,334.1739,950.2746,338.7113,958.6,333.4494" style="stroke:#181818;stroke-width:1;"/></g><!--link Compile to Core--><g class="link" data-entity-1="ent0006" data-entity-2="ent0014" data-link-type="dependency" data-source-line="38" id="lnk28"><path d="M801.26,392.2394 C826.97,400.6494 855.1,410.9594 880,422.6094 C908.38,435.8894 913.05,443.6394 940,459.6094 C1010.38,501.3094 1030.66,507.1994 1100,550.6094 C1140.63,576.0394 1181.4134,604.6538 1208.0034,623.7138" fill="none" id="Compile-to-Core" style="stroke:#181818;stroke-width:1;"/><polygon fill="#181818" points="1212.88,627.2094,1207.8955,618.715,1208.8162,624.2964,1203.2348,625.2171,1212.88,627.2094" style="stroke:#181818;stroke-width:1;"/></g><!--link RuntimeFacade to Assembly--><g class="link" data-entity-1="ent0005" data-entity-2="ent0008" data-link-type="dependency" data-source-line="39" id="lnk29"><path d="M457.36,396.2594 C506.32,414.8394 565.6503,437.3608 618.2803,457.3308" fill="none" id="RuntimeFacade-to-Assembly" style="stroke:#181818;stroke-width:1;"/><polygon fill="#181818" points="623.89,459.4594,616.8944,452.5267,619.2152,457.6856,614.0563,460.0064,623.89,459.4594" style="stroke:#181818;stroke-width:1;"/></g><!--link Assembly to RuntimeContracts--><g class="link" data-entity-1="ent0008" data-entity-2="ent0010" data-link-type="dependency" data-source-line="40" id="lnk30"><path d="M811.04,467.4194 C835.84,456.6294 861,442.0294 880,422.6094 C928.19,373.3394 896.43,333.0194 940,279.6094 C945.04,273.4294 946.3715,271.5234 952.6715,266.2434" fill="none" id="Assembly-to-RuntimeContracts" style="stroke:#181818;stroke-width:1;"/><polygon fill="#181818" points="957.27,262.3894,947.8028,265.1047,953.4379,265.6011,952.9415,271.2361,957.27,262.3894" style="stroke:#181818;stroke-width:1;"/></g><!--link Assembly to Dispatchers--><g class="link" data-entity-1="ent0008" data-entity-2="ent0011" data-link-type="dependency" data-source-line="41" id="lnk31"><path d="M811.11,469.9494 C852.33,458.9794 894.5616,447.7318 934.0716,437.2218" fill="none" id="Assembly-to-Dispatchers" style="stroke:#181818;stroke-width:1;"/><polygon fill="#181818" points="939.87,435.6794,930.1442,434.1274,935.038,436.9647,932.2007,441.8586,939.87,435.6794" style="stroke:#181818;stroke-width:1;"/></g><!--link Assembly to Actions--><g class="link" data-entity-1="ent0008" data-entity-2="ent0015" data-link-type="dependency" data-source-line="42" id="lnk32"><path d="M806.63,548.6794 C894.98,602.2694 1035.41,685.7894 1160,752.6094 C1174.41,760.3394 1185.2546,765.7752 1198.9746,772.3852" fill="none" id="Assembly-to-Actions" style="stroke:#181818;stroke-width:1;"/><polygon fill="#181818" points="1204.38,774.9894,1198.0081,767.4795,1199.8755,772.8192,1194.5358,774.6867,1204.38,774.9894" style="stroke:#181818;stroke-width:1;"/></g><!--link Assembly to Vision--><g class="link" data-entity-1="ent0008" data-entity-2="ent0019" data-link-type="dependency" data-source-line="43" id="lnk33"><path d="M811.21,508.3694 C892.44,523.6994 1011.06,554.2694 1100,611.6094 C1133.87,633.4494 1127.96,655.1594 1160,679.6094 C1174.62,690.7694 1187.6204,697.5469 1202.6604,703.9569" fill="none" id="Assembly-to-Vision" style="stroke:#181818;stroke-width:1;"/><polygon fill="#181818" points="1208.18,706.3094,1201.4689,699.101,1203.5803,704.349,1198.3323,706.4605,1208.18,706.3094" style="stroke:#181818;stroke-width:1;"/></g><!--link Assembly to Logs--><g class="link" data-entity-1="ent0008" data-entity-2="ent0018" data-link-type="dependency" data-source-line="44" id="lnk34"><path d="M759.86,548.8794 C801.09,600.1294 868.44,676.5594 940,727.6094 C1032.29,793.4494 1156.1101,837.2764 1207.5101,853.8664" fill="none" id="Assembly-to-Logs" style="stroke:#181818;stroke-width:1;"/><polygon fill="#181818" points="1213.22,855.7094,1205.8837,849.1383,1208.4617,854.1736,1203.4264,856.7516,1213.22,855.7094" style="stroke:#181818;stroke-width:1;"/></g><!--link Assembly to Emulator--><g class="link" data-entity-1="ent0008" data-entity-2="ent0017" data-link-type="dependency" data-source-line="45" id="lnk35"><path d="M742.64,548.6394 C776.98,619.8694 846.32,744.8794 940,819.6094 C1020.14,883.5294 1133.9558,914.5301 1193.4158,927.4001" fill="none" id="Assembly-to-Emulator" style="stroke:#181818;stroke-width:1;"/><polygon fill="#181818" points="1199.28,928.6694,1191.3299,922.856,1194.3932,927.6116,1189.6375,930.6749,1199.28,928.6694" style="stroke:#181818;stroke-width:1;"/></g><!--link Assembly to Capture--><g class="link" data-entity-1="ent0008" data-entity-2="ent0016" data-link-type="dependency" data-source-line="46" id="lnk36"><path d="M733.11,548.7294 C759.64,636.8994 824,811.5294 940,909.6094 C1018.71,976.1594 1137.9526,997.7754 1196.8626,1004.8354" fill="none" id="Assembly-to-Capture" style="stroke:#181818;stroke-width:1;"/><polygon fill="#181818" points="1202.82,1005.5494,1194.3599,1000.5069,1197.8555,1004.9544,1193.408,1008.45,1202.82,1005.5494" style="stroke:#181818;stroke-width:1;"/></g><!--link Execution to RuntimeContracts--><g class="link" data-entity-1="ent0009" data-entity-2="ent0010" data-link-type="dependency" data-source-line="47" id="lnk37"><path d="M794.33,238.3194 C840.4,235.7094 892.9796,232.7382 938.7696,230.1482" fill="none" id="Execution-to-RuntimeContracts" style="stroke:#181818;stroke-width:1;"/><polygon fill="#181818" points="944.76,229.8094,935.5485,226.324,939.768,230.0917,936.0003,234.3112,944.76,229.8094" style="stroke:#181818;stroke-width:1;"/></g><!--link Execution to Dispatchers--><g class="link" data-entity-1="ent0009" data-entity-2="ent0011" data-link-type="dependency" data-source-line="48" id="lnk38"><path d="M794.28,270.4394 C822.26,282.2194 853.56,297.2594 880,314.6094 C910.25,334.4494 910.77,348.2994 940,369.6094 C948.29,375.6494 952.3031,378.4625 961.3831,383.8625" fill="none" id="Execution-to-Dispatchers" style="stroke:#181818;stroke-width:1;"/><polygon fill="#181818" points="966.54,386.9294,960.8492,378.8911,962.2425,384.3736,956.76,385.767,966.54,386.9294" style="stroke:#181818;stroke-width:1;"/></g><!--link Dispatchers to RuntimeRegistry--><g class="link" data-entity-1="ent0011" data-entity-2="ent0012" data-link-type="dependency" data-source-line="49" id="lnk39"><path d="M1100.26,414.6094 C1119.72,414.6094 1134.49,414.6094 1153.77,414.6094" fill="none" id="Dispatchers-to-RuntimeRegistry" style="stroke:#181818;stroke-width:1;"/><polygon fill="#181818" points="1159.77,414.6094,1150.77,410.6094,1154.77,414.6094,1150.77,418.6094,1159.77,414.6094" style="stroke:#181818;stroke-width:1;"/></g><!--link Dispatchers to Actions--><g class="link" data-entity-1="ent0011" data-entity-2="ent0015" data-link-type="dependency" data-source-line="50" id="lnk40"><path d="M1032.07,442.2694 C1063.99,521.9194 1154.29,746.5194 1160,752.6094 C1171.97,765.3894 1183.7219,772.1347 1198.7619,778.0147" fill="none" id="Dispatchers-to-Actions" style="stroke:#181818;stroke-width:1;"/><polygon fill="#181818" points="1204.35,780.1994,1197.4243,773.1969,1199.6932,778.3788,1194.5114,780.6477,1204.35,780.1994" style="stroke:#181818;stroke-width:1;"/></g><!--link Dispatchers to Logs--><g class="link" data-entity-1="ent0011" data-entity-2="ent0018" data-link-type="dependency" data-source-line="51" id="lnk41"><path d="M1023.12,442.1794 C1030,513.9294 1057.61,709.0194 1160,825.6094 C1174.06,841.6194 1190.9325,849.5589 1207.7425,855.0089" fill="none" id="Dispatchers-to-Logs" style="stroke:#181818;stroke-width:1;"/><polygon fill="#181818" points="1213.45,856.8594,1206.1223,850.2787,1208.6937,855.3173,1203.6551,857.8887,1213.45,856.8594" style="stroke:#181818;stroke-width:1;"/></g><!--link Dispatchers to Vision--><g class="link" data-entity-1="ent0011" data-entity-2="ent0019" data-link-type="dependency" data-source-line="52" id="lnk42"><path d="M1040.15,442.3994 C1057,467.4594 1081.63,505.6394 1100,540.6094 C1131.3,600.1794 1113.58,630.8994 1160,679.6094 C1173.09,693.3494 1186.7349,700.5818 1202.5249,706.4418" fill="none" id="Dispatchers-to-Vision" style="stroke:#181818;stroke-width:1;"/><polygon fill="#181818" points="1208.15,708.5294,1201.1041,701.6479,1203.4624,706.7897,1198.3206,709.1481,1208.15,708.5294" style="stroke:#181818;stroke-width:1;"/></g><?plantuml-src RLPBRzim3BxxLn0vhabxxs50rxMd3YYIOgS2WMepjX1PCYGvRJRiluzwEPBZK-IFhuyKISLoAn0UHgjwPhcIyAnPZvzA7s43lrGp2hm7FKg9kge47YnO1PgtdOM6QwoTJMMEN0wC3C5qh56VNBPmOC9W9gbLFoY9qkxicI8wKoPRaQiCh3wo5kSALSHX5NYiu6y55t-mmY-iAG5zEvpVvHiQ-nI15J03wQEq8LUMzxWVj3fmWNkDHeaJ1X_R87mDicqKUMypRD5fxkF7o4M3cifHimQzYoXvziWoAmTH5EzeLwDacgjNmUHZm3NS4MvnID_UR_meFHhIsfi1QqFEuEPTkZDbst9ZzPamR-fyxPpICXrc3FOVufmdHlIfgETK2CSeIXmqwZffP98TwXDV4ZmgQV7BHe6dz11ZBZCALqwzLvHew_l35oSLZGyekCHGC6gYJ8LoNcWKry-B8NlLe4XLd7YSI6SE3ahmcgD9rSsIr9JXhCZCpz2-uMPWjkvy2pflTAoF9Uoz_PoG-MrTBXLkm9kRksyvWstKgFvbG_NqPL5B9kAqcwlngfN6s60QbxYRS67XFBDbWnsJUJZFPhSV1Pjk87wKAaAr8S8B7KhHYHkAwOM__T5bbYuLDfllis6RJQ_Nc88k2HFd9PcdioI8L9P4gKW5hH0fJc_yzTXbB7FKNyErWsbWqY7F_z9xXJJlfKAGU1PWpAl0V14APAfdWQP2JaEspAuKv_IoSsuwjVHSdZAOuvxm78oPLL9PX0zbwJK4TRZQr6yTnhSGUZyi8DKd67JFbqLpJoeRY2yA-1SbxHE2QNr3sEji0kF607PPTXkOTXimsO1V9cVew4oBhAsGC4VpYco-lbpZP7wu0UEMNmEsqsfiE-9ins4DxdKmQpAW_kG7NdjcQn_N8jFqbCjRs2BLTqql61TqWrvA5frIHmZh3vXsbT0z4_mF1U7I_G_GU26FOg1Itrx8_mS0?></g></svg>